<svg width="571" height="570" viewBox="0 0 571 570" fill="none" xmlns="http://www.w3.org/2000/svg">
<path d="M547.184 15.924V118.978H399.171L393.837 16.6368L547.184 15.924Z" fill="#E0E0E0"/>
<path d="M393.837 16.6369V118.762L541.851 118.762V16.6369L393.837 16.6369Z" fill="white"/>
<path d="M542.563 119.462H393.137V15.9368H542.563V119.462ZM394.537 118.062H541.15V17.337H394.537V118.062Z" fill="#E0E0E0"/>
<path d="M525.825 29.3278H409.876V106.071H525.825V29.3278Z" fill="white"/>
<path d="M525.825 29.3278H525.252H523.61H517.245L493.353 29.4169L409.888 29.5824L410.219 29.2514C410.219 52.6983 410.219 78.6783 410.219 105.982L409.863 105.613L525.812 105.689L525.519 105.982C525.583 82.6243 525.634 63.4798 525.672 50.1398C525.672 43.4825 525.736 38.2763 525.748 34.6994C525.748 32.9428 525.748 31.5935 525.748 30.6516C525.748 29.7224 525.748 29.2387 525.748 29.2387C525.748 29.2387 525.748 29.6842 525.748 30.5879C525.748 31.4917 525.748 32.8537 525.748 34.5849C525.748 38.149 525.748 43.3297 525.825 49.9616C525.825 63.3398 525.914 82.548 525.977 105.969V106.262H525.685L409.736 106.339H409.366V105.969C409.366 78.6656 409.366 52.6856 409.366 29.2387V28.9077H409.71L493.633 29.1623L517.449 29.2514H523.75H525.354L525.825 29.3278Z" fill="#E0E0E0"/>
<path d="M393.837 16.3568C394.75 16.797 395.605 17.3486 396.383 17.9989C397.898 19.0936 399.96 20.6465 402.187 22.4286C404.415 24.2106 406.375 25.8909 407.75 27.1638C408.549 27.7907 409.263 28.5181 409.876 29.3277C407.055 27.3443 404.336 25.2201 401.729 22.9632C398.965 20.9255 396.329 18.7192 393.837 16.3568Z" fill="#E0E0E0"/>
<path d="M541.863 16.6368C539.425 19.0271 536.822 21.2432 534.073 23.2687C531.469 25.4787 528.712 27.5034 525.825 29.3277C528.26 26.934 530.863 24.7178 533.615 22.6959C536.219 20.4858 538.975 18.4612 541.863 16.6368Z" fill="#E0E0E0"/>
<path d="M541.736 118.775L525.188 105.397L541.736 118.775Z" fill="white"/>
<path d="M525.239 105.397C528.205 107.325 531.037 109.451 533.717 111.761C536.547 113.9 539.226 116.23 541.736 118.737C538.77 116.809 535.938 114.682 533.258 112.372C530.428 110.234 527.749 107.903 525.239 105.397Z" fill="#E0E0E0"/>
<path d="M393.837 118.762C396.248 116.391 398.826 114.196 401.551 112.194C404.12 110.002 406.847 108.003 409.71 106.211C407.3 108.579 404.722 110.77 401.996 112.767C399.425 114.96 396.698 116.963 393.837 118.762Z" fill="#E0E0E0"/>
<path d="M433.412 53.2329V78.9329H506.375V53.2329H433.412Z" fill="#E0E0E0"/>
<path d="M439.763 568.225H571V187.308H439.763L439.763 568.225Z" fill="#E0E0E0"/>
<path d="M369.321 568.225H513.006V187.308H369.321L369.321 568.225Z" fill="#F5F5F5"/>
<path d="M457.533 479.338H419.142C418.417 479.338 417.72 479.05 417.207 478.537C416.694 478.023 416.406 477.327 416.406 476.601V474.323H460.27V476.601C460.27 477.327 459.982 478.023 459.468 478.537C458.955 479.05 458.259 479.338 457.533 479.338Z" fill="#E0E0E0"/>
<path d="M375.673 474.323C375.673 474.323 375.673 474.781 375.673 475.698C375.673 476.614 375.673 478.002 375.673 479.784C375.673 483.411 375.673 488.694 375.596 495.504C375.596 509.188 375.507 528.867 375.444 552.963V553.256H375.736L503.778 553.332H504.211V552.963C504.211 525.137 504.211 498.597 504.211 474.437V474.106H503.816L411.429 474.183L385.067 474.246H378.078H376.284H375.698H376.335H378.155H385.207L411.658 474.361L503.816 474.616L503.472 474.272C503.472 498.457 503.472 524.972 503.472 552.797L503.842 552.441H503.765L375.724 552.517L376.004 552.797C375.94 528.778 375.889 509.15 375.851 495.517C375.851 488.694 375.851 483.373 375.787 479.733C375.787 477.925 375.787 476.55 375.787 475.596C375.787 474.641 375.673 474.323 375.673 474.323Z" fill="#E0E0E0"/>
<path d="M418.137 503.842H456.26V493.544H418.137V503.842Z" fill="#E0E0E0"/>
<path d="M459.277 387.689H420.899C420.173 387.689 419.477 387.401 418.964 386.887C418.451 386.374 418.162 385.678 418.162 384.952V382.674H462.014V384.952C462.014 385.678 461.725 386.374 461.212 386.887C460.699 387.401 460.003 387.689 459.277 387.689Z" fill="#E0E0E0"/>
<path d="M376.029 382.661C376.029 382.661 376.029 383.119 376.029 384.036C376.029 384.952 376.029 386.352 376.029 388.122C376.029 391.75 376.029 397.032 375.953 403.842C375.953 417.526 375.864 437.205 375.8 461.314V461.594H376.093L504.134 461.67H504.567V461.314C504.567 433.475 504.567 406.935 504.567 382.788V382.445H504.236L411.849 382.521L385.487 382.597H378.499H376.704H376.118H376.755H378.575H385.627L412.078 382.725L504.236 382.966L503.892 382.636C503.892 406.821 503.892 433.323 503.892 461.161L504.262 460.792H504.185L376.144 460.868L376.424 461.161C376.36 437.129 376.309 417.513 376.271 403.88C376.271 397.058 376.271 391.737 376.271 388.096C376.271 386.301 376.271 384.914 376.271 383.959C376.271 383.005 376.029 382.661 376.029 382.661Z" fill="#E0E0E0"/>
<path d="M421.014 411.569H459.137V401.271H421.014V411.569Z" fill="#E0E0E0"/>
<path d="M457.61 202.723H419.219C418.493 202.723 417.797 202.435 417.284 201.921C416.77 201.408 416.482 200.712 416.482 199.986V197.708H460.346V199.986C460.346 200.346 460.276 200.701 460.138 201.033C460.001 201.365 459.799 201.667 459.545 201.921C459.291 202.175 458.989 202.377 458.657 202.515C458.325 202.652 457.969 202.723 457.61 202.723Z" fill="#E0E0E0"/>
<path d="M375.736 197.695C375.736 197.695 375.736 198.153 375.736 199.07C375.736 199.986 375.736 201.386 375.736 203.156C375.736 206.784 375.736 212.066 375.673 218.876C375.673 232.56 375.584 252.239 375.52 276.348V276.628H375.8L503.854 276.717H504.287V276.348C504.287 248.509 504.287 221.969 504.287 197.822V197.479H503.816L411.441 197.555L385.067 197.631H378.078H376.296H375.698C375.91 197.642 376.123 197.642 376.335 197.631H378.155H385.219L411.658 197.746L503.816 197.988L503.472 197.657C503.472 221.842 503.472 248.344 503.472 276.182L503.842 275.813L375.787 275.89L376.08 276.182C376.016 252.15 375.965 232.534 375.927 218.902C375.927 212.079 375.864 206.758 375.851 203.118C375.851 201.323 375.851 199.935 375.851 198.981C375.851 198.026 375.736 197.695 375.736 197.695Z" fill="#E0E0E0"/>
<path d="M420.033 224.757H458.157V214.459H420.033V224.757Z" fill="#E0E0E0"/>
<path d="M457.61 295.174H419.219C418.493 295.174 417.797 294.886 417.284 294.372C416.77 293.859 416.482 293.163 416.482 292.437V290.082H460.346V292.361C460.356 292.727 460.293 293.091 460.16 293.432C460.027 293.773 459.827 294.083 459.572 294.346C459.317 294.608 459.012 294.816 458.675 294.959C458.338 295.101 457.975 295.174 457.61 295.174Z" fill="#E0E0E0"/>
<path d="M375.736 290.108C375.736 290.108 375.736 290.566 375.736 291.483C375.736 292.399 375.736 293.787 375.736 295.569C375.736 299.196 375.736 304.479 375.673 311.289C375.673 324.973 375.584 344.652 375.52 368.748V369.028H375.8L503.854 369.104H504.287V368.735C504.287 340.91 504.287 314.369 504.287 290.21V289.879H503.816L411.441 289.955H385.067H378.078H376.296H375.698H376.335H378.155H385.219L411.658 290.07L503.816 290.324L503.472 289.981C503.472 314.166 503.472 340.68 503.472 368.506L503.842 368.15L375.787 368.226L376.08 368.506C376.016 344.486 375.965 324.858 375.927 311.225C375.927 304.403 375.864 299.082 375.851 295.441C375.851 293.634 375.851 292.259 375.851 291.304C375.851 290.35 375.736 290.108 375.736 290.108Z" fill="#E0E0E0"/>
<path d="M420.033 317.183H458.157V306.885H420.033V317.183Z" fill="#E0E0E0"/>
<path d="M167.298 13.3528H29.7096V136.443H167.298V13.3528Z" fill="#FAFAFA"/>
<path d="M167.298 136.443C167.298 136.443 167.298 135.654 167.298 134.151C167.298 132.649 167.298 130.435 167.298 127.558C167.298 121.779 167.298 113.339 167.209 102.571C167.209 81.0713 167.12 50.3816 167.056 13.3528L167.362 13.6582H29.786L30.1551 13.2891C30.1551 58.0699 30.1551 100.203 30.1551 136.379L29.8242 136.048L129.34 136.214L157.408 136.303H164.841H166.751H167.413H166.789H164.905H157.548L129.544 136.379L29.8242 136.545H29.5059V136.226C29.5059 100.05 29.5059 57.9172 29.5059 13.1364V12.7672H29.8878H167.463H167.782V13.0854C167.705 50.1525 167.654 80.944 167.616 102.507C167.616 113.238 167.553 121.601 167.54 127.418C167.54 130.269 167.54 132.509 167.54 133.961C167.54 135.412 167.298 136.443 167.298 136.443Z" fill="#E0E0E0"/>
<path d="M82.4843 35.2213C82.4843 35.425 75.2415 35.5905 66.3057 35.5905C57.3699 35.5905 50.1398 35.425 50.1398 35.2213C50.1398 35.0176 57.3699 34.8522 66.3057 34.8522C75.2415 34.8522 82.4843 35.0176 82.4843 35.2213Z" fill="#E0E0E0"/>
<path d="M140.771 44.4371C140.771 44.6408 120.875 44.8063 96.3335 44.8063C71.7919 44.8063 51.9346 44.6663 51.9346 44.4371C51.9346 44.208 71.8301 44.068 96.3717 44.068C120.913 44.068 140.771 44.2589 140.771 44.4371Z" fill="#E0E0E0"/>
<path d="M56.1479 60.1193H50.3561V65.911H56.1479V60.1193Z" fill="#E0E0E0"/>
<path d="M70.4171 60.1193H64.6254V65.911H70.4171V60.1193Z" fill="#E0E0E0"/>
<path d="M84.9537 59.8521H79.162V65.6438H84.9537V59.8521Z" fill="#E0E0E0"/>
<path d="M98.9557 60.1193H93.164V65.911H98.9557V60.1193Z" fill="#E0E0E0"/>
<path d="M113.225 60.1193H107.433V65.911H113.225V60.1193Z" fill="#E0E0E0"/>
<path d="M127.494 60.1193H121.703V65.911H127.494V60.1193Z" fill="#E0E0E0"/>
<path d="M141.764 60.1193H135.972V65.911H141.764V60.1193Z" fill="#EBEBEB"/>
<path d="M56.1479 72.441H50.3561V78.2328H56.1479V72.441Z" fill="#EBEBEB"/>
<path d="M70.4171 72.441H64.6254V78.2328H70.4171V72.441Z" fill="#E0E0E0"/>
<path d="M84.6864 72.441H78.8947V78.2328H84.6864V72.441Z" fill="#EBEBEB"/>
<path d="M98.9557 72.441H93.164V78.2328H98.9557V72.441Z" fill="#E0E0E0"/>
<path d="M113.225 72.441H107.433V78.2328H113.225V72.441Z" fill="#E0E0E0"/>
<path d="M127.749 72.1737H121.957V77.9654H127.749V72.1737Z" fill="#E0E0E0"/>
<path d="M141.764 72.441H135.972V78.2328H141.764V72.441Z" fill="#E0E0E0"/>
<path d="M56.1479 84.7627H50.3561V90.5544H56.1479V84.7627Z" fill="#E0E0E0"/>
<path d="M70.6845 84.4954H64.8927V90.2871H70.6845V84.4954Z" fill="#E0E0E0"/>
<path d="M84.6864 84.7627H78.8947V90.5544H84.6864V84.7627Z" fill="#E0E0E0"/>
<path d="M98.9557 84.7627H93.164V90.5544H98.9557V84.7627Z" fill="#EBEBEB"/>
<path d="M113.225 84.7627H107.433V90.5544H113.225V84.7627Z" fill="#E0E0E0"/>
<path d="M127.494 84.7627H121.703V90.5544H127.494V84.7627Z" fill="#E0E0E0"/>
<path d="M141.764 84.7627H135.972V90.5544H141.764V84.7627Z" fill="#E0E0E0"/>
<path d="M56.1479 97.0845H50.3561V102.876H56.1479V97.0845Z" fill="#E0E0E0"/>
<path d="M70.4171 97.0845H64.6254V102.876H70.4171V97.0845Z" fill="#E0E0E0"/>
<path d="M84.6864 97.0845H78.8947V102.876H84.6864V97.0845Z" fill="#E0E0E0"/>
<path d="M99.223 96.83H93.4313V102.622H99.223V96.83Z" fill="#E0E0E0"/>
<path d="M113.225 97.0845H107.433V102.876H113.225V97.0845Z" fill="#E0E0E0"/>
<path d="M127.494 97.0845H121.703V102.876H127.494V97.0845Z" fill="#EBEBEB"/>
<path d="M141.764 97.0845H135.972V102.876H141.764V97.0845Z" fill="#E0E0E0"/>
<path d="M56.1479 109.406H50.3561V115.198H56.1479V109.406Z" fill="#E0E0E0"/>
<path d="M70.4171 109.406H64.6254V115.198H70.4171V109.406Z" fill="#EBEBEB"/>
<path d="M84.6864 109.406H78.8947V115.198H84.6864V109.406Z" fill="#E0E0E0"/>
<path d="M98.9557 109.406H93.164V115.198H98.9557V109.406Z" fill="#E0E0E0"/>
<path d="M113.225 109.406H107.433V115.198H113.225V109.406Z" fill="#E0E0E0"/>
<path d="M127.749 109.152H121.957V114.943H127.749V109.152Z" fill="#E0E0E0"/>
<path d="M141.764 109.406H135.972V115.198H141.764V109.406Z" fill="#E0E0E0"/>
<path d="M282.952 196.627L235.503 214.49L247.545 246.476L294.994 228.613L282.952 196.627Z" fill="#EBEBEB"/>
<path d="M283.247 196.982C283.177 197.192 283.083 197.393 282.967 197.58L282.089 199.235C281.274 200.699 280.141 202.761 278.754 205.282C275.877 210.373 271.931 217.425 267.577 225.202L267.488 225.368H267.297L266.865 225.228L244.869 218.011L238.212 215.77L236.417 215.147C236.201 215.083 235.992 214.998 235.793 214.892C236.013 214.933 236.23 214.988 236.442 215.057L238.275 215.605L244.971 217.705L267.056 224.732L267.488 224.872L267.208 224.986C271.625 217.234 275.597 210.233 278.512 205.129L281.961 199.146L282.929 197.53C283.018 197.338 283.125 197.155 283.247 196.982Z" fill="#E0E0E0"/>
<path d="M247.835 246.829C247.72 246.829 249.63 241.063 252.124 234.036C254.619 227.01 256.72 221.307 256.834 221.397C256.949 221.486 255.039 227.176 252.557 234.126C250.075 241.076 247.962 246.829 247.835 246.829Z" fill="#E0E0E0"/>
<path d="M272.465 215.07C272.529 214.956 277.697 217.985 283.998 221.817C290.299 225.648 295.352 228.856 295.289 228.97C295.225 229.085 290.057 226.055 283.756 222.211C277.455 218.367 272.402 215.172 272.465 215.07Z" fill="#E0E0E0"/>
<path d="M344.397 95.6715C345.61 94.936 346.916 94.3666 348.28 93.9786L349.082 90.1598L355.573 90.0453L356.515 93.864C357.891 94.2 359.214 94.7225 360.449 95.417L363.733 93.2657L368.404 97.7718L366.368 101.132C367.102 102.323 367.672 103.607 368.061 104.951L371.879 105.74L371.994 112.245L368.175 113.174C367.836 114.551 367.318 115.877 366.635 117.12L368.786 120.391L364.267 125.063L360.92 123.039C359.704 123.765 358.399 124.33 357.037 124.719L356.235 128.538L349.744 128.653L348.802 124.834C347.428 124.492 346.105 123.97 344.868 123.281L341.584 125.432L336.913 120.913L338.949 117.566C338.211 116.354 337.642 115.048 337.256 113.683L333.438 112.881L333.323 106.389L337.142 105.447C337.479 104.074 337.997 102.751 338.682 101.514L336.531 98.2301L341.05 93.5585L344.397 95.5952V95.6715ZM347.86 104.315C346.899 105.306 346.254 106.56 346.006 107.918C345.759 109.275 345.92 110.676 346.468 111.943C347.017 113.209 347.929 114.284 349.09 115.032C350.25 115.78 351.606 116.167 352.986 116.144C354.366 116.121 355.708 115.688 356.843 114.902C357.977 114.116 358.853 113.011 359.359 111.726C359.865 110.442 359.978 109.037 359.685 107.688C359.392 106.339 358.705 105.107 357.712 104.149C357.058 103.509 356.284 103.004 355.435 102.664C354.585 102.323 353.677 102.153 352.762 102.164C351.847 102.175 350.943 102.366 350.102 102.726C349.261 103.086 348.499 103.609 347.86 104.264V104.315Z" fill="#E0E0E0"/>
<path d="M347.86 104.264C348.222 103.821 348.651 103.439 349.133 103.131C349.971 102.587 350.916 102.227 351.904 102.076C352.892 101.925 353.901 101.985 354.864 102.254C355.827 102.522 356.722 102.992 357.49 103.633C358.257 104.273 358.88 105.07 359.316 105.969C359.946 107.237 360.181 108.665 359.99 110.068C359.786 111.579 359.109 112.987 358.056 114.09C356.995 115.185 355.612 115.912 354.11 116.165C353.401 116.28 352.679 116.28 351.971 116.165C351.285 116.08 350.615 115.891 349.985 115.605C348.823 115.078 347.822 114.252 347.083 113.212C346.45 112.302 346.04 111.255 345.887 110.157C345.645 108.57 345.97 106.948 346.803 105.575C347.093 105.095 347.459 104.665 347.885 104.302C347.885 104.302 347.465 104.76 346.93 105.715C346.183 107.077 345.914 108.65 346.167 110.183C346.332 111.231 346.742 112.225 347.363 113.085C348.074 114.067 349.031 114.844 350.138 115.338C350.733 115.602 351.364 115.778 352.009 115.86C352.684 115.968 353.371 115.968 354.046 115.86C355.465 115.618 356.771 114.932 357.776 113.9C358.772 112.85 359.413 111.514 359.609 110.081C359.768 108.775 359.552 107.45 358.985 106.262C358.457 105.168 357.649 104.232 356.643 103.551C355.762 102.963 354.754 102.592 353.702 102.469C352.165 102.27 350.605 102.593 349.273 103.385C348.305 103.882 347.898 104.353 347.86 104.264Z" fill="#E0E0E0"/>
<path d="M344.397 95.6716L344.181 95.557L343.545 95.1879L340.999 93.6858H341.075L336.594 98.3956V98.2683L338.758 101.54C338.079 102.772 337.569 104.091 337.244 105.46V105.537H337.167L333.349 106.491L333.45 106.351C333.45 108.388 333.539 110.565 333.578 112.843L333.463 112.69L337.282 113.48H337.371V113.569C337.759 114.91 338.324 116.194 339.051 117.387V117.476V117.566L337.065 121.091V120.862L341.75 125.368H341.521L344.792 123.205L344.894 123.141L344.996 123.205C346.221 123.884 347.53 124.397 348.891 124.732H349.005V124.847L349.934 128.665L349.744 128.525L356.235 128.411L356.044 128.563C356.299 127.291 356.579 126.018 356.846 124.745V124.63H356.961C358.305 124.254 359.59 123.692 360.78 122.963H360.894H360.996L364.344 124.999H364.102L368.608 120.328V120.57C367.882 119.462 367.157 118.367 366.457 117.285L366.393 117.184V117.082C367.078 115.858 367.596 114.548 367.933 113.187V113.072H368.048L371.867 112.143L371.727 112.334C371.727 110.119 371.688 107.955 371.612 105.842L371.765 106.02L367.946 105.206H367.844V105.091C367.465 103.75 366.909 102.466 366.19 101.272V101.183V101.094L368.226 97.7337V97.9373L363.567 93.4185H363.758L360.474 95.557H360.398H360.321C359.092 94.8737 357.778 94.3558 356.414 94.0168H356.337V93.9404C356.006 92.5529 355.701 91.3055 355.408 90.1217L355.535 90.2108L349.031 90.2872H349.12C348.789 91.8146 348.522 93.0748 348.292 94.1059C347.267 94.3853 346.273 94.7692 345.327 95.2515L344.626 95.6079L344.385 95.7352C344.45 95.6751 344.523 95.6237 344.601 95.5825L345.288 95.1879C346.233 94.6844 347.227 94.2791 348.254 93.9786C348.458 92.9348 348.713 91.6746 349.018 90.1599V90.0835H349.094L355.586 89.9435H355.688V90.0326C355.981 91.2164 356.299 92.4638 356.643 93.8513L356.541 93.7622C357.932 94.0994 359.272 94.6217 360.525 95.3151H360.372L363.656 93.1639L363.758 93.0876L363.847 93.1767L368.519 97.6828L368.621 97.7719L368.544 97.8864L366.52 101.247V101.069C367.265 102.292 367.839 103.611 368.226 104.989L368.099 104.862L371.918 105.651H372.058V105.791C372.058 107.904 372.147 110.068 372.185 112.283V112.436H372.032L368.213 113.378L368.353 113.238C368.011 114.629 367.485 115.969 366.788 117.222V116.993L368.952 120.277L369.028 120.404L368.926 120.519L364.407 125.19L364.306 125.305L364.166 125.228L360.805 123.192H361.009C359.785 123.935 358.466 124.509 357.088 124.897L357.228 124.745C356.948 126.018 356.681 127.38 356.426 128.563V128.729H356.274L349.782 128.831H349.629V128.678C349.298 127.405 348.98 126.056 348.687 124.859L348.827 124.999C347.437 124.652 346.098 124.126 344.843 123.434H345.047L341.762 125.585L341.635 125.661L341.533 125.559L336.862 121.041L336.76 120.951L336.836 120.824C337.549 119.653 338.237 118.507 338.873 117.476V117.655C338.134 116.426 337.564 115.103 337.18 113.721L337.295 113.836L333.476 113.034H333.349V112.907C333.349 110.628 333.272 108.464 333.247 106.415V106.3H333.349L337.167 105.371L337.065 105.537C337.408 104.149 337.935 102.813 338.631 101.565V101.692C337.855 100.509 337.142 99.4012 336.493 98.3956L341.024 93.7495L343.57 95.277L344.194 95.6843C344.334 95.6079 344.397 95.6588 344.397 95.6716Z" fill="#E0E0E0"/>
<path d="M29.6587 555.28C27.3293 553.294 22.1486 546.968 26.1455 539.623C27.6093 536.937 30.7279 535.601 33.5411 534.417C36.3542 533.233 39.32 532.202 41.6495 530.216C46.0537 526.474 47.263 520.262 50.1779 515.272C53.5384 509.544 59.7884 505.242 66.3948 505.547C74.0322 505.891 80.2694 512.077 83.1335 519.116C85.9975 526.156 86.0993 533.984 86.1502 541.596C86.1502 545.809 85.9975 550.506 82.9043 553.396C80.0658 556.018 75.7761 556.043 71.9192 555.942L30.5625 554.669" fill="#F5F5F5"/>
<path d="M108.744 441.584H0L19.59 558.386C19.9925 560.82 21.0784 563.09 22.7213 564.931C24.3641 566.773 26.4963 568.109 28.8695 568.785L29.2514 568.9C29.5696 568.976 29.8878 569.091 30.2188 569.142C30.9482 569.291 31.6893 569.376 32.4336 569.396V569.511L32.9683 569.422H81.4532C82.3461 569.422 83.237 569.337 84.1136 569.167C86.9499 568.726 89.5631 567.367 91.5521 565.297C93.5411 563.228 94.796 560.562 95.1242 557.711L104.556 477.225L104.989 474.017L108.732 442.195L108.744 441.584ZM88.2378 516.074H77.0744L78.1946 482.177H91.1273L88.2378 516.074ZM92.2093 482.177H102.851L98.8666 516.074H89.3198L92.2093 482.177ZM60.3866 553.663L59.712 524.208H75.7252L74.745 553.663H60.3866ZM42.9478 524.208H58.5664L59.241 553.663H45.2391L42.9478 524.208ZM44.2207 553.663H31.0716C29.7987 545.707 28.2076 535.371 26.451 524.208H41.8659L44.2207 553.663ZM42.3878 516.074L39.7528 482.177H57.599L58.3754 516.074H42.3878ZM59.5211 516.074L58.7446 482.177H77.1126L75.9925 516.074H59.5211ZM58.5537 474.068L57.8281 442.678H78.4364L77.3927 474.043L58.5537 474.068ZM57.4717 474.068H39.0527L36.6597 442.653H56.6952L57.4717 474.068ZM37.9326 474.043H18.5462C17.8589 469.715 17.2097 465.603 16.6114 461.912C14.5875 449.183 13.8238 444.448 13.4037 442.653H35.5268L37.9326 474.043ZM38.569 482.177L41.204 516.074H25.2035C24.6562 512.637 24.1088 509.162 23.5615 505.675L19.8573 482.177H38.569ZM24.0834 516.074H13.5819L7.90474 482.177H18.7372C20.3919 492.653 22.2377 504.313 24.0834 516.074ZM25.3563 524.208C26.9601 534.391 28.5258 544.447 29.9769 553.663H19.8955L14.9439 524.208H25.3563ZM75.827 553.663L76.8071 524.208H87.5759L85.0301 553.663H75.827ZM78.4619 474.043L79.5057 442.653H94.5005L91.8274 474.043H78.4619ZM12.3726 442.653C12.8054 444.919 14.7912 457.279 17.4643 474.043H6.54273L1.27291 442.653H12.3726ZM94.5132 553.663H86.0993L88.6451 524.208H97.9883L94.5132 553.663ZM103.856 474.043H92.9094L95.5952 442.653H107.535L103.856 474.043Z" fill="#E0E0E0"/>
<path d="M551.55 568.225C551.55 568.416 435.003 568.556 291.254 568.556C147.504 568.556 30.9316 568.416 30.9316 568.225C30.9316 568.034 147.453 567.894 291.254 567.894C435.054 567.894 551.55 568.047 551.55 568.225Z" fill="#263238"/>
<path d="M440.667 278.435C440.667 278.435 455.7 261.137 461.377 243.825C467.055 226.514 464.356 228.55 464.356 228.55C464.356 228.55 456.719 245.353 450.889 253.474C445.059 261.595 434.71 273.509 434.71 273.509L440.667 278.435Z" fill="#455A64"/>
<path d="M437.625 231.198C437.727 231.022 437.887 230.888 438.078 230.817C438.268 230.746 438.477 230.743 438.669 230.809C438.862 230.875 439.025 231.006 439.132 231.179C439.238 231.352 439.282 231.557 439.254 231.758C438.338 237.842 436.352 252.124 436.428 261.353C436.53 273.369 436.428 278.015 436.428 278.015H430.166C430.166 278.015 431.286 253.168 432.712 245.594C433.636 240.581 435.291 235.73 437.625 231.198Z" fill="#455A64"/>
<path d="M434.264 276.004C431.638 270.062 429.901 263.766 429.109 257.318C428.6 252.888 429.517 246.906 430.879 238.937C431.408 235.997 431.676 233.015 431.68 230.027C431.673 229.697 431.558 229.379 431.352 229.121C431.146 228.864 430.862 228.681 430.542 228.601C430.222 228.522 429.884 228.55 429.582 228.681C429.279 228.812 429.028 229.039 428.867 229.327C427.353 232.12 426.182 235.086 425.38 238.161C423.865 246.04 422.146 249.973 423.458 257.458C424.769 264.943 429.618 276.437 429.618 276.437L434.264 276.004Z" fill="#455A64"/>
<path d="M428.626 276.501C428.626 276.501 412.078 241.025 410.97 235.768C409.863 230.511 405.942 218.367 405.484 219.054C405.026 219.742 404.338 226.157 407.317 233.476C410.296 240.796 422.987 277.583 422.987 277.583H428.626" fill="#455A64"/>
<path d="M436.072 274.922C436.072 274.922 436.237 274.821 436.53 274.604C436.823 274.388 437.269 274.069 437.803 273.624C439.344 272.392 440.823 271.083 442.233 269.703C446.868 265.126 450.882 259.961 454.173 254.339C457.48 248.722 460.234 242.796 462.396 236.646C463.236 234.291 463.834 232.369 464.229 231.02C464.432 230.358 464.572 229.836 464.661 229.48C464.724 229.302 464.767 229.119 464.789 228.932C464.789 228.932 464.712 229.11 464.598 229.454L464.101 230.982C463.669 232.255 463.019 234.228 462.167 236.57C459.956 242.675 457.195 248.568 453.918 254.174C450.632 259.779 446.65 264.945 442.067 269.551C440.311 271.307 438.796 272.644 437.727 273.548L436.454 274.566C436.316 274.673 436.189 274.793 436.072 274.922Z" fill="#263238"/>
<path d="M434.264 257.904C434.346 257.561 434.397 257.212 434.417 256.86C434.494 256.122 434.595 255.167 434.71 254.008C434.977 251.615 435.385 248.306 435.983 244.665C436.581 241.025 437.256 237.753 437.727 235.399L438.325 232.598C438.417 232.261 438.477 231.916 438.503 231.567C438.379 231.896 438.272 232.232 438.185 232.573C438.007 233.222 437.765 234.164 437.472 235.348C436.912 237.69 436.199 240.961 435.639 244.614C435.079 248.268 434.685 251.577 434.481 253.983C434.379 255.192 434.315 256.172 434.29 256.847C434.246 257.197 434.237 257.551 434.264 257.904Z" fill="#263238"/>
<path d="M430.395 229.11C430.318 229.253 430.254 229.402 430.204 229.556L429.707 230.829C429.491 231.402 429.236 232.102 428.995 232.942C428.753 233.782 428.435 234.711 428.193 235.78C428.065 236.315 427.925 236.875 427.785 237.448C427.645 238.021 427.556 238.644 427.429 239.281C427.149 240.554 426.983 241.903 426.792 243.329C426.429 246.45 426.297 249.594 426.398 252.735C426.522 255.879 426.871 259.01 427.442 262.104C427.747 263.517 428.015 264.866 428.371 266.101C428.549 266.725 428.689 267.374 428.867 267.896L429.389 269.538C429.707 270.582 430.089 271.498 430.395 272.313C430.7 273.127 430.993 273.815 431.26 274.362L431.846 275.635C431.908 275.786 431.985 275.931 432.075 276.068C432.075 276.068 432.075 275.902 431.91 275.597C431.744 275.291 431.604 274.833 431.375 274.324C431.146 273.815 430.866 273.051 430.586 272.249C430.306 271.447 429.924 270.518 429.631 269.474L429.122 267.832C428.956 267.272 428.816 266.661 428.651 266.037C428.307 264.764 428.053 263.492 427.76 262.053C427.214 258.977 426.869 255.869 426.729 252.748C426.639 249.625 426.762 246.499 427.098 243.392C427.289 241.967 427.442 240.605 427.696 239.357C427.824 238.721 427.913 238.084 428.04 237.537C428.167 236.99 428.307 236.391 428.422 235.869C428.651 234.8 428.944 233.858 429.173 233.018C429.402 232.178 429.631 231.478 429.822 230.892L430.255 229.556C430.319 229.414 430.366 229.264 430.395 229.11Z" fill="#263238"/>
<path d="M405.675 219.767C405.675 219.767 405.675 219.767 405.675 219.933V220.391C405.751 220.798 405.841 221.397 406.006 222.16C406.324 223.688 406.859 225.877 407.686 228.525C408.514 231.172 409.634 234.304 410.97 237.741C412.307 241.177 413.847 244.92 415.311 248.904C416.775 252.888 417.946 256.758 419.028 260.284C420.11 263.81 421.103 266.967 422.083 269.589C422.82 271.654 423.67 273.676 424.629 275.648C424.96 276.348 425.265 276.921 425.469 277.239L425.698 277.646C425.722 277.692 425.752 277.735 425.787 277.774C425.771 277.721 425.749 277.67 425.723 277.621L425.532 277.201C425.354 276.832 425.074 276.297 424.756 275.597C423.803 273.61 422.953 271.575 422.21 269.5C421.255 266.877 420.275 263.721 419.219 260.195C418.162 256.669 417.017 252.774 415.527 248.739C414.038 244.703 412.498 241.012 411.161 237.588C409.825 234.164 408.615 231.058 407.801 228.41C406.986 225.763 406.388 223.573 406.019 222.046C405.841 221.295 405.726 220.696 405.637 220.302L405.522 219.844L405.675 219.767Z" fill="#263238"/>
<path d="M456.579 211.939C456.807 211.723 457.101 211.589 457.413 211.558C457.726 211.526 458.04 211.599 458.307 211.764C458.574 211.93 458.779 212.179 458.89 212.473C459.001 212.767 459.012 213.089 458.921 213.39C458.346 215.211 457.653 216.993 456.846 218.723C454.567 223.548 447.935 240.847 444.779 250.355C441.622 259.864 437.269 277.583 437.269 277.583L430.599 276.501C430.599 276.501 436.696 247.377 442.653 236.875C447.439 228.436 452.225 216.279 456.579 211.939Z" fill="#455A64"/>
<path d="M442.958 256.3C442.814 256.549 442.699 256.814 442.615 257.089C442.424 257.611 442.156 258.362 441.851 259.329C441.24 261.226 440.489 263.886 439.725 266.839C438.961 269.792 438.338 272.465 437.905 274.413C437.701 275.342 437.536 276.106 437.409 276.73C437.33 277.008 437.283 277.294 437.269 277.583C437.389 277.318 437.479 277.04 437.536 276.755C437.701 276.157 437.905 275.38 438.147 274.477L440.069 266.928C440.82 263.975 441.533 261.315 442.093 259.405C442.347 258.502 442.577 257.738 442.742 257.14C442.847 256.869 442.919 256.587 442.958 256.3Z" fill="#263238"/>
<path d="M433.921 277.048V276.87L433.997 276.348C434.061 275.877 434.124 275.202 434.264 274.324C434.506 272.567 434.952 270.047 435.665 266.979C436.514 263.375 437.556 259.819 438.783 256.325C440.145 252.379 441.864 248.115 443.811 243.698C447.732 234.877 451.64 227.061 454.211 221.269C455.484 218.393 456.528 216.038 457.19 214.396C457.52 213.568 457.762 212.932 457.941 212.499C458.017 212.295 458.068 212.13 458.119 212.003C458.17 211.875 458.182 211.824 458.119 211.824L458.042 211.99C457.979 212.117 457.915 212.27 457.826 212.474C457.622 212.919 457.355 213.543 457.011 214.332C456.311 215.961 455.267 218.303 453.944 221.167C451.309 226.921 447.363 234.724 443.429 243.558C441.482 247.975 439.776 252.252 438.427 256.223C437.205 259.726 436.185 263.296 435.372 266.916C434.824 269.358 434.399 271.826 434.099 274.311C433.984 275.177 433.946 275.877 433.895 276.335V276.857C433.904 276.984 433.912 277.048 433.921 277.048Z" fill="#263238"/>
<path d="M430.599 276.501C430.706 276.134 430.782 275.759 430.828 275.38C430.955 274.604 431.133 273.573 431.35 272.325C431.808 269.78 432.508 266.177 433.513 262.308C434.519 258.438 435.639 254.988 436.505 252.519C436.925 251.323 437.281 250.342 437.549 249.591C437.692 249.241 437.807 248.879 437.892 248.509C437.71 248.841 437.553 249.186 437.421 249.54C437.128 250.215 436.721 251.195 436.263 252.43C435.067 255.638 434.034 258.905 433.17 262.219C432.164 266.037 431.502 269.678 431.095 272.275C430.904 273.547 430.764 274.629 430.688 275.368C430.629 275.742 430.599 276.121 430.599 276.501Z" fill="#263238"/>
<path d="M416.928 307.241H442.933V275.546H416.928V307.241Z" fill="#D1376A"/>
<g opacity="0.3">
<path d="M416.928 307.241H442.933V275.546H416.928V307.241Z" fill="black"/>
</g>
<path d="M425.214 307.241H448.292V275.546H425.214V307.241Z" fill="#D1376A"/>
<path d="M209.208 14.5139L160.922 29.9705L171.341 62.521L219.628 47.0644L209.208 14.5139Z" fill="#D1376A"/>
<path d="M209.495 14.8293C209.407 15.0337 209.3 15.2297 209.177 15.4149C208.935 15.8222 208.617 16.3568 208.209 17.0187L204.581 22.8996L192.425 42.235L192.323 42.3878H192.145L191.725 42.2223L170.086 33.9229L163.556 31.3771L161.786 30.6643C161.575 30.5895 161.37 30.4957 161.175 30.3843C161.393 30.4273 161.606 30.4913 161.812 30.5752L163.619 31.2116L170.2 33.6429L191.84 41.8277L192.272 41.9804L191.992 42.0823L204.276 22.8105C205.842 20.3919 207.114 18.4189 208.031 17.0187L209.062 15.4531C209.187 15.2324 209.332 15.0237 209.495 14.8293Z" fill="#263238"/>
<path d="M171.588 62.8433C171.473 62.8433 173.675 57.1662 176.501 50.2798C179.327 43.3933 181.733 37.8435 181.847 37.8944C181.962 37.9453 179.772 43.5716 176.934 50.458C174.095 57.3444 171.74 62.8943 171.588 62.8433Z" fill="#263238"/>
<path d="M197.81 32.3446C197.886 32.2428 202.901 35.5269 208.986 39.6765C215.07 43.8262 219.984 47.314 219.907 47.314C219.831 47.314 214.816 44.1444 208.731 39.9948C202.647 35.8451 197.733 32.4592 197.81 32.3446Z" fill="#263238"/>
<path d="M422.554 85.081L386.62 69.8953C385.445 69.3804 384.52 68.4246 384.044 67.2341C383.568 66.0435 383.579 64.7135 384.074 63.5307L405.153 13.7856C405.665 12.609 406.621 11.6819 407.812 11.2053C409.004 10.7287 410.335 10.7411 411.518 11.2398L434.315 20.8884L444.244 46.5502L428.969 82.6116C428.44 83.7849 427.47 84.7023 426.269 85.1646C425.068 85.627 423.733 85.5969 422.554 85.081Z" fill="#D1376A"/>
<path d="M434.303 20.7611L428.371 34.7631C428.136 35.312 428.012 35.9019 428.006 36.4989C428 37.0958 428.112 37.6881 428.336 38.2417C428.559 38.7953 428.89 39.2992 429.309 39.7246C429.728 40.1499 430.227 40.4883 430.777 40.7203L444.231 46.4229L434.303 20.7611Z" fill="#D1376A"/>
<g opacity="0.2">
<path d="M428.027 36.0741C427.596 37.1388 427.537 38.3181 427.86 39.4204C428.184 40.5227 428.871 41.4832 429.809 42.1459C429.935 42.2505 430.067 42.3483 430.204 42.4386C431.833 43.4951 442.526 50.4579 442.64 50.1906L444.231 46.3719L430.777 40.6693C430.777 40.6693 427.442 39.18 428.027 36.0741Z" fill="black"/>
</g>
<g opacity="0.3">
<path d="M434.303 20.7611L428.371 34.7631C428.136 35.312 428.012 35.9019 428.006 36.4989C428 37.0958 428.112 37.6881 428.336 38.2417C428.559 38.7953 428.89 39.2992 429.309 39.7246C429.728 40.1499 430.227 40.4883 430.777 40.7203L444.231 46.4229L434.303 20.7611Z" fill="white"/>
</g>
<path d="M425.596 32.981C422.7 32.1379 419.874 31.0696 417.144 29.786C414.323 28.7211 411.587 27.4446 408.959 25.9673C411.862 26.8023 414.693 27.8707 417.424 29.1623C420.244 30.219 422.976 31.4959 425.596 32.981Z" fill="#FAFAFA"/>
<path d="M432.979 45.3791C432.902 45.5573 426.716 43.1134 419.155 39.9056C411.594 36.6979 405.535 33.9739 405.611 33.783C405.688 33.592 411.874 36.0615 419.435 39.2564C426.996 42.4514 433.055 45.2009 432.979 45.3791Z" fill="#FAFAFA"/>
<path d="M432.648 53.042C432.572 53.2202 425.825 50.4962 417.589 47.0466C409.354 43.597 402.735 40.6184 402.811 40.402C402.887 40.1856 409.621 42.9478 417.869 46.3974C426.118 49.847 432.724 52.8511 432.648 53.042Z" fill="#FAFAFA"/>
<path d="M429.988 59.2792C429.911 59.4574 423.177 56.7334 414.942 53.2838C406.706 49.8342 400.087 46.8175 400.151 46.6393C400.214 46.461 406.973 49.1851 415.209 52.6346C423.445 56.0842 430.077 59.0883 429.988 59.2792Z" fill="#FAFAFA"/>
<path d="M427.365 65.5038C427.289 65.6947 420.543 62.958 412.307 59.5211C404.071 56.0843 397.452 53.0548 397.528 52.8766C397.605 52.6984 404.338 55.4224 412.587 58.8719C420.835 62.3215 427.442 65.3256 427.365 65.5038Z" fill="#FAFAFA"/>
<path d="M424.718 71.741C424.641 71.9319 417.895 69.1952 409.659 65.7583C401.424 62.3215 394.804 59.2919 394.881 59.1137C394.957 58.9355 401.704 61.6596 409.939 65.0964C418.175 68.5332 424.794 71.5628 424.718 71.741Z" fill="#FAFAFA"/>
<path d="M301.704 95.6334C327.961 95.6334 349.247 74.3477 349.247 48.0904C349.247 21.8331 327.961 0.547363 301.704 0.547363C275.447 0.547363 254.161 21.8331 254.161 48.0904C254.161 74.3477 275.447 95.6334 301.704 95.6334Z" fill="white"/>
<path d="M349.247 48.0904C349.247 48.0904 349.247 47.8358 349.171 47.3266C349.094 46.8175 349.082 46.0537 349.018 45.0608C349.018 44.5644 348.954 44.0171 348.916 43.4061C348.878 42.7951 348.725 42.1332 348.623 41.4203C348.41 39.7651 348.078 38.1273 347.631 36.5197C346.52 32.0731 344.743 27.8202 342.361 23.9052C338.909 18.1538 334.278 13.1987 328.774 9.36586C323.269 5.533 317.015 2.90933 310.424 1.6675C308.452 1.30093 306.457 1.07126 304.454 0.980126C303.435 0.980126 302.404 0.840104 301.373 0.852833L298.242 1.01831C297.72 1.01831 297.185 1.01831 296.663 1.12015L295.085 1.362C294.041 1.5402 292.972 1.66749 291.915 1.88389C287.582 2.85727 283.393 4.38907 279.454 6.44089C278.461 6.97551 277.506 7.61196 276.513 8.1975C276.03 8.503 275.52 8.77031 275.049 9.11399L273.662 10.1578C269.808 12.9566 266.437 16.3663 263.682 20.2519L262.6 21.703L261.646 23.256L260.691 24.758C260.355 25.2697 260.057 25.8058 259.8 26.3619C259.278 27.4693 258.744 28.5767 258.196 29.6969L256.923 33.1846C255.37 38.0035 254.546 43.0277 254.479 48.0904C254.546 53.1488 255.37 58.1688 256.923 62.9834C257.343 64.1544 257.776 65.3255 258.196 66.4839C258.616 67.6422 259.265 68.7114 259.8 69.8061C260.054 70.3678 260.352 70.9084 260.691 71.4227L261.646 72.9884L262.588 74.5414L263.682 75.9925C265.094 77.9216 266.638 79.7504 268.303 81.466C269.987 83.1017 271.777 84.624 273.662 86.023L275.049 87.0667C275.52 87.4104 276.03 87.6777 276.513 87.9832C277.506 88.5688 278.461 89.2561 279.454 89.7398C283.393 91.7917 287.582 93.3235 291.915 94.2968C292.972 94.526 294.041 94.6405 295.098 94.8187L296.663 95.0606C297.198 95.0606 297.72 95.0606 298.242 95.1624L301.424 95.3534C302.455 95.3534 303.486 95.2643 304.505 95.2388C306.508 95.1435 308.503 94.9095 310.474 94.5387C317.068 93.3015 323.324 90.6797 328.829 86.8464C334.334 83.0131 338.964 78.0555 342.412 72.301C344.774 68.3909 346.534 64.1468 347.631 59.712C348.078 58.1043 348.41 56.4665 348.623 54.8113C348.725 54.0985 348.853 53.4366 348.916 52.8256C348.98 52.2146 348.993 51.6672 349.018 51.1708C349.086 50.1864 349.137 49.4354 349.171 48.9178C349.171 48.4086 349.247 48.1413 349.247 48.1413C349.247 48.1413 349.247 48.4086 349.247 48.9178C349.247 49.4269 349.247 50.1907 349.171 51.1708C349.171 51.68 349.171 52.2273 349.094 52.851C349.018 53.4748 348.929 54.1239 348.827 54.8368C348.631 56.4824 348.316 58.1118 347.885 59.712C346.806 64.1949 345.051 68.4872 342.679 72.4411C339.23 78.2748 334.579 83.3077 329.036 87.2055C323.492 91.1033 317.182 93.7766 310.525 95.0479C308.533 95.4222 306.517 95.6604 304.492 95.7607C303.461 95.7607 302.417 95.9007 301.373 95.888L298.204 95.7352C297.669 95.7352 297.134 95.7352 296.6 95.6334L295.06 95.3534C293.99 95.1752 292.908 95.0606 291.839 94.8315C289.678 94.3581 287.551 93.7371 285.475 92.973C283.332 92.2084 281.243 91.2983 279.225 90.249C278.219 89.7016 277.239 89.0652 276.246 88.4669C275.75 88.1487 275.228 87.8814 274.757 87.5377L273.356 86.4812C271.446 85.0655 269.63 83.5262 267.921 81.8733C266.231 80.1325 264.662 78.2782 263.224 76.3234L262.117 74.8596L261.149 73.2812L260.195 71.69C259.849 71.1728 259.547 70.6278 259.291 70.0607C258.756 68.9406 258.209 67.8204 257.674 66.6875L256.401 63.1361C254.832 58.2547 254 53.1665 253.932 48.0395C253.971 42.9294 254.773 37.8539 256.312 32.981L257.585 29.4423L259.215 26.0564C259.469 25.4909 259.767 24.9462 260.106 24.427L261.073 22.8486L262.028 21.2702L263.135 19.7937C264.576 17.8456 266.145 15.9957 267.832 14.2565C269.541 12.6036 271.357 11.0644 273.267 9.64861L274.668 8.5921C275.139 8.24842 275.66 7.98111 276.157 7.66288C277.15 7.07734 278.13 6.38998 279.135 5.89354C283.129 3.82408 287.373 2.27956 291.763 1.29835C292.832 1.08196 293.914 0.954669 294.983 0.776462L296.574 0.534607C297.109 0.534607 297.644 0.534609 298.178 0.432777L301.348 0.280029C302.391 0.280029 303.423 0.369131 304.454 0.407318C306.482 0.513205 308.502 0.751321 310.5 1.12015C317.156 2.39139 323.466 5.06471 329.01 8.96248C334.554 12.8603 339.205 17.8932 342.654 23.7269C345.025 27.6808 346.781 31.9731 347.86 36.456C348.29 38.0774 348.6 39.7281 348.789 41.3949C348.891 42.1204 349.005 42.7823 349.056 43.3933L349.133 45.0608C349.133 46.041 349.196 46.792 349.209 47.3266C349.222 47.8612 349.247 48.0904 349.247 48.0904Z" fill="#263238"/>
<path d="M324.247 46.7538C323.625 46.9827 322.987 47.1656 322.338 47.3012L317.03 48.5741C312.537 49.6178 306.299 51.0308 299.324 52.5583L298.929 52.6474V50.8016C298.929 43.3551 298.929 36.6087 299.018 31.7081C299.018 29.3659 299.107 27.4184 299.133 25.9291C299.114 25.2224 299.156 24.5153 299.26 23.816C299.356 24.5162 299.398 25.2225 299.387 25.9291C299.387 27.4184 299.451 29.3659 299.489 31.7081C299.489 36.596 299.591 43.3424 299.591 50.8016V52.1891L299.184 51.8582C306.159 50.3434 312.409 49.0068 316.928 48.0394L322.274 46.9829C322.923 46.8456 323.584 46.7689 324.247 46.7538Z" fill="#263238"/>
<path d="M352.646 67.6931C352.692 67.4277 352.764 67.1676 352.862 66.9167C353.002 66.4202 353.295 65.6437 353.55 64.7527C354.368 62.0822 354.99 59.3551 355.408 56.5934C356.863 47.4681 355.993 38.1233 352.878 29.4237C349.763 20.724 344.504 12.9506 337.587 6.82278C335.515 4.96922 333.311 3.2676 330.994 1.73115C330.179 1.15834 329.504 0.776473 329.084 0.458247C328.852 0.323861 328.63 0.170597 328.422 0C328.68 0.0770142 328.925 0.192908 329.148 0.343685C329.593 0.598266 330.294 0.941948 331.134 1.4893C333.526 2.96113 335.791 4.6302 337.906 6.47909C344.969 12.5908 350.332 20.4257 353.472 29.2226C356.613 38.0195 357.424 47.4792 355.828 56.6825C355.377 59.4403 354.7 62.1565 353.804 64.8036C353.499 65.7456 353.168 66.4584 352.989 66.9421C352.904 67.2048 352.789 67.4567 352.646 67.6931Z" fill="#263238"/>
<path d="M361.76 44.2971C361.658 44.2971 361.594 42.4004 361.212 39.3709C360.702 35.4316 359.807 31.5519 358.539 27.7875C357.26 24.0389 355.609 20.4272 353.613 17.006C352.06 14.371 350.94 12.8436 351.067 12.7799C351.41 13.0667 351.71 13.401 351.958 13.7728C352.48 14.4601 353.231 15.4657 354.046 16.7514C356.212 20.1364 357.964 23.7689 359.265 27.5711C360.575 31.3728 361.43 35.3167 361.811 39.32C361.951 40.8475 361.989 42.0949 361.989 42.9605C361.983 43.4153 361.906 43.8663 361.76 44.2971Z" fill="#263238"/>
<path d="M254.237 20.5574C254.162 20.8114 254.055 21.055 253.919 21.2829C253.69 21.7539 253.296 22.4158 252.888 23.3196C248.095 32.8426 246.161 43.5496 247.319 54.1478C248.478 64.746 252.68 74.7821 259.418 83.0443C261.172 85.2133 263.078 87.2551 265.121 89.1543C265.834 89.8416 266.394 90.3253 266.814 90.6818C267.018 90.854 267.21 91.0412 267.387 91.2418C267.148 91.1172 266.925 90.9633 266.725 90.7836C266.317 90.4654 265.694 90.0071 264.955 89.3452C262.829 87.5076 260.858 85.4981 259.062 83.3371C253.055 76.1821 249.003 67.5934 247.301 58.4073C245.599 49.2213 246.304 39.751 249.35 30.9188C250.247 28.2583 251.367 25.678 252.697 23.205C253.143 22.314 253.576 21.6648 253.83 21.2193C253.947 20.9877 254.084 20.7663 254.237 20.5574Z" fill="#263238"/>
<path d="M241.521 42.2095C241.636 42.2095 241.394 44.1061 241.292 47.1611C241.157 51.1283 241.426 55.099 242.094 59.0118C242.776 62.9286 243.85 66.7667 245.302 70.468C246.409 73.3066 247.275 74.9995 247.173 75.0504C246.886 74.7058 246.647 74.3249 246.46 73.9176C246.04 73.1665 245.48 72.0591 244.869 70.6462C243.271 66.9781 242.117 63.1321 241.432 59.19C240.756 55.2312 240.551 51.2063 240.821 47.1993C240.936 45.659 241.088 44.4243 241.228 43.5715C241.264 43.1063 241.363 42.6482 241.521 42.2095Z" fill="#263238"/>
<path d="M341.062 55.8933C339.268 55.5241 337.816 55.2059 337.816 55.1932C337.816 55.1804 339.28 55.4605 341.075 55.8296C342.87 56.1988 344.321 56.5043 344.308 56.517C344.296 56.5297 342.844 56.3133 341.062 55.8933Z" fill="#263238"/>
<path d="M336.454 67.9223C334.876 66.9931 333.603 66.2293 333.603 66.2166C333.603 66.2039 334.876 66.9422 336.48 67.8714C338.084 68.8006 339.331 69.5643 339.318 69.5771C339.306 69.5898 338.02 68.8515 336.454 67.9223Z" fill="#263238"/>
<path d="M328.155 77.7491C326.959 76.3489 326.004 75.2032 326.017 75.2032C326.029 75.2032 327.009 76.3107 328.193 77.7491C329.377 79.1874 330.345 80.2949 330.319 80.2949C330.294 80.2949 329.428 79.1365 328.155 77.7491Z" fill="#263238"/>
<path d="M317.195 84.3681C316.521 82.6624 315.986 81.2749 315.999 81.2749C316.012 81.2749 316.572 82.6369 317.272 84.3426C317.972 86.0483 318.481 87.423 318.456 87.4358C318.43 87.4485 317.87 86.061 317.195 84.3681Z" fill="#263238"/>
<path d="M304.645 87.0539C304.568 85.221 304.517 83.7444 304.53 83.7444C304.543 83.7444 304.632 85.221 304.708 87.0539C304.785 88.8869 304.848 90.3635 304.835 90.3635C304.823 90.3635 304.734 88.8869 304.645 87.0539Z" fill="#263238"/>
<path d="M291.903 85.5138C292.412 83.7572 292.832 82.3442 292.857 82.3442C292.883 82.3442 292.476 83.7826 291.966 85.5392C291.457 87.2958 291.024 88.7088 290.999 88.7088C290.974 88.7088 291.381 87.2704 291.903 85.5138Z" fill="#263238"/>
<path d="M280.332 79.9385C281.389 78.4365 282.254 77.2399 282.28 77.2527C282.305 77.2654 281.439 78.5256 280.383 79.9767C279.326 81.4278 278.512 82.6243 278.512 82.6243C278.512 82.6243 279.276 81.4278 280.332 79.9385Z" fill="#263238"/>
<path d="M271.231 70.9009C272.707 69.8189 273.917 68.966 273.929 68.9788C273.942 68.9915 272.746 69.8698 271.256 70.9518C269.767 72.0338 268.57 72.8739 268.558 72.8611C268.545 72.8484 269.741 71.9701 271.231 70.9009Z" fill="#263238"/>
<path d="M265.528 59.3938C267.285 58.8591 268.71 58.4391 268.71 58.4518C268.71 58.4645 267.297 58.9228 265.541 59.4574C263.784 59.992 262.371 60.3994 262.371 60.3866C262.371 60.3739 263.784 59.9284 265.528 59.3938Z" fill="#263238"/>
<path d="M263.886 46.6647C265.719 46.6647 267.196 46.792 267.196 46.8175C267.196 46.8429 265.706 46.8175 263.886 46.7284C262.066 46.6393 260.564 46.5884 260.577 46.5756C260.589 46.5629 262.053 46.5884 263.886 46.6647Z" fill="#263238"/>
<path d="M266.457 34.0757C268.176 34.7376 269.551 35.2722 269.551 35.3486C269.551 35.425 268.15 34.8394 266.432 34.1902C264.713 33.5411 263.351 32.9937 263.351 32.981C263.351 32.9682 264.752 33.4265 266.457 34.0757Z" fill="#263238"/>
<path d="M272.987 23.0141C274.388 24.1979 275.533 25.1653 275.533 25.1781C275.533 25.1908 274.375 24.2488 272.987 23.065C271.6 21.8812 270.442 20.9266 270.442 20.9138C270.442 20.9011 271.574 21.843 272.987 23.0141Z" fill="#263238"/>
<path d="M282.738 14.6894C283.68 16.255 284.444 17.5279 284.431 17.5407C284.418 17.5534 283.629 16.2678 282.687 14.7148C281.745 13.1619 280.981 11.8762 280.994 11.8635C281.007 11.8508 281.796 13.1237 282.738 14.6894Z" fill="#263238"/>
<path d="M294.665 9.95409C295.047 11.7489 295.352 13.2 295.34 13.2C295.327 13.2 294.996 11.7616 294.601 9.96682C294.207 8.17202 293.914 6.73364 293.939 6.72091C293.965 6.70818 294.283 8.17202 294.665 9.95409Z" fill="#263238"/>
<path d="M307.483 9.36848C307.267 11.1887 307.076 12.6526 307.063 12.6526C307.05 12.6526 307.203 11.176 307.432 9.35575C307.661 7.53549 307.839 6.07166 307.852 6.07166C307.865 6.07166 307.712 7.52277 307.483 9.36848Z" fill="#263238"/>
<path d="M319.818 12.9709C319.028 14.613 318.366 15.9495 318.354 15.9368C318.341 15.9241 318.965 14.5875 319.754 12.9328C320.543 11.278 321.205 9.95416 321.23 9.96689C321.256 9.97962 320.607 11.3416 319.818 12.9709Z" fill="#263238"/>
<path d="M330.294 20.3792C329.021 21.6521 327.951 22.7214 327.939 22.7086C327.926 22.6959 328.97 21.6267 330.255 20.3283C331.541 19.03 332.598 17.9862 332.61 17.9989C332.623 18.0116 331.592 19.0809 330.294 20.3792Z" fill="#263238"/>
<path d="M337.804 30.7788C336.162 31.5935 334.825 32.2427 334.825 32.2299C334.825 32.2172 336.098 31.5426 337.778 30.7279C339.458 29.9132 340.757 29.2641 340.757 29.2768C340.757 29.2895 339.446 29.9642 337.804 30.7788Z" fill="#263238"/>
<path d="M341.546 43.0624L338.249 43.457C338.249 43.457 339.713 43.2279 341.533 42.9988C343.354 42.7696 344.817 42.5787 344.817 42.5914C344.817 42.6042 343.354 42.8205 341.546 43.0624Z" fill="#263238"/>
<path d="M365.069 38.6708C364.363 40.8201 363.451 42.8961 362.345 44.8698L362.269 45.0098L362.014 45.5317L361.696 45.048C360.416 43.2604 359.315 41.3502 358.412 39.3454C359.88 40.9881 361.185 42.7702 362.307 44.6662H361.734L361.811 44.5134C362.705 42.465 363.797 40.5083 365.069 38.6708Z" fill="#263238"/>
<path d="M386.709 146.168H237.104C233.59 146.168 230.219 147.564 227.734 150.049C225.249 152.534 223.853 155.904 223.853 159.419C223.853 162.933 225.249 166.303 227.734 168.789C230.219 171.274 233.59 172.67 237.104 172.67H307.114L322.783 187.601V172.67H386.709C388.449 172.67 390.172 172.327 391.78 171.661C393.387 170.995 394.848 170.019 396.079 168.789C397.309 167.558 398.285 166.097 398.951 164.49C399.617 162.882 399.96 161.159 399.96 159.419C399.96 157.679 399.617 155.955 398.951 154.348C398.285 152.74 397.309 151.279 396.079 150.049C394.848 148.818 393.387 147.842 391.78 147.176C390.172 146.51 388.449 146.168 386.709 146.168Z" fill="#FAFAFA"/>
<path d="M386.709 146.168H387.192C387.678 146.173 388.163 146.211 388.644 146.282C390.534 146.536 392.346 147.201 393.952 148.23C395.487 149.208 396.807 150.49 397.828 151.997C398.85 153.504 399.553 155.204 399.892 156.993C400.232 158.781 400.202 160.621 399.805 162.397C399.407 164.174 398.65 165.85 397.579 167.323C396.133 169.337 394.16 170.914 391.877 171.88C390.653 172.376 389.369 172.705 388.058 172.861C386.696 172.962 385.347 172.924 383.947 172.937H365.922H322.758L323.051 172.644C323.051 177.329 323.051 182.395 323.051 187.575V188.276L322.542 187.792L306.859 172.861L307.076 172.95H247.58H237.193C233.726 172.986 230.376 171.693 227.832 169.337C225.288 166.981 223.742 163.74 223.512 160.28C223.283 156.82 224.386 153.403 226.597 150.732C228.807 148.06 231.957 146.336 235.398 145.913C237.053 145.735 238.644 145.824 240.248 145.799H263.542L327.646 145.875L370.925 145.977L382.674 146.041H385.729C386.416 146.041 386.772 146.041 386.772 146.041H385.729H382.674L370.925 146.104L327.646 146.219H263.542H240.248C238.657 146.219 237.028 146.219 235.488 146.333C232.299 146.73 229.375 148.305 227.29 150.75C225.684 152.634 224.653 154.939 224.319 157.392C223.985 159.845 224.361 162.342 225.404 164.587C226.447 166.832 228.112 168.73 230.202 170.057C232.291 171.384 234.718 172.083 237.193 172.071H247.58H307.076H307.203L307.292 172.148L322.962 187.092L322.452 187.308C322.452 182.127 322.452 177.061 322.452 172.377V172.097H322.732H365.897H383.921C385.309 172.097 386.683 172.097 387.994 172.097C389.273 171.955 390.528 171.642 391.724 171.168C394.363 170.057 396.567 168.116 398.002 165.638C399.437 163.161 400.024 160.282 399.674 157.441C399.324 154.599 398.056 151.95 396.063 149.894C394.07 147.839 391.46 146.49 388.631 146.053C387.371 146.181 386.709 146.27 386.709 146.168Z" fill="#263238"/>
<path d="M302.532 168.787H237.015C235.784 168.789 234.565 168.548 233.428 168.078C232.29 167.607 231.257 166.917 230.387 166.047C229.516 165.177 228.826 164.143 228.356 163.006C227.886 161.869 227.645 160.65 227.646 159.419C227.653 156.94 228.644 154.565 230.4 152.815C232.157 151.066 234.536 150.085 237.015 150.088H302.532C303.761 150.087 304.979 150.327 306.116 150.797C307.252 151.266 308.285 151.955 309.155 152.824C310.025 153.693 310.716 154.725 311.187 155.861C311.658 156.997 311.9 158.215 311.9 159.444C311.898 160.673 311.655 161.889 311.183 163.024C310.711 164.158 310.021 165.189 309.151 166.056C308.281 166.924 307.249 167.611 306.113 168.08C304.977 168.549 303.76 168.789 302.532 168.787Z" fill="#D1376A"/>
<path d="M308.018 132.51L305.803 139.281H304.123L302.633 134.699L301.093 139.281H299.426L297.198 132.51H298.878L300.406 137.27L301.997 132.51H303.448L305.001 137.308L306.567 132.51H308.018Z" fill="#263238"/>
<path d="M308.387 135.895C308.346 135.155 308.528 134.42 308.91 133.785C309.291 133.15 309.854 132.643 310.527 132.331C311.199 132.02 311.949 131.917 312.681 132.036C313.412 132.155 314.091 132.491 314.63 133C315.168 133.508 315.542 134.167 315.702 134.891C315.862 135.614 315.802 136.369 315.528 137.058C315.255 137.747 314.781 138.338 314.169 138.755C313.556 139.171 312.832 139.395 312.091 139.396C311.615 139.424 311.137 139.354 310.689 139.19C310.24 139.027 309.83 138.773 309.483 138.445C309.136 138.118 308.86 137.722 308.671 137.284C308.483 136.845 308.386 136.373 308.387 135.895ZM314.204 135.895C314.194 135.48 314.062 135.076 313.823 134.736C313.585 134.395 313.252 134.132 312.865 133.98C312.478 133.828 312.055 133.793 311.648 133.88C311.242 133.967 310.87 134.173 310.58 134.47C310.289 134.767 310.093 135.144 310.016 135.552C309.938 135.961 309.983 136.383 310.144 136.766C310.306 137.149 310.576 137.476 310.923 137.706C311.269 137.936 311.675 138.059 312.091 138.059C312.371 138.06 312.647 138.003 312.904 137.893C313.162 137.783 313.394 137.622 313.586 137.42C313.779 137.217 313.929 136.978 314.026 136.716C314.124 136.454 314.167 136.175 314.153 135.895H314.204Z" fill="#263238"/>
<path d="M321.294 139.281L320.021 137.397H318.583V139.281H317.017V132.51H319.945C321.752 132.51 322.885 133.451 322.885 134.966C322.905 135.424 322.781 135.877 322.53 136.261C322.278 136.645 321.913 136.94 321.485 137.105L323.013 139.281H321.294ZM319.818 133.782H318.545V136.15H319.818C320.772 136.15 321.256 135.705 321.256 134.966C321.256 134.228 320.772 133.782 319.818 133.782Z" fill="#263238"/>
<path d="M326.551 136.621L325.635 137.563V139.281H324.082V132.51H325.609V135.666L328.613 132.51H330.357L327.544 135.526L330.523 139.281H328.69L326.551 136.621Z" fill="#263238"/>
<path d="M369.55 161.901H367.615L367.144 164.345H365.769L366.266 161.901H360.767L360.945 160.921L367.233 154.442H368.888L362.867 160.692H366.597L367.03 158.54H368.303L367.87 160.692H369.754L369.55 161.901Z" fill="#263238"/>
<path d="M373.623 155.676L372.809 158.388H373.763C376.309 158.388 377.442 159.431 377.442 161.035C377.442 163.085 375.762 164.447 373.229 164.447C372.595 164.484 371.961 164.39 371.365 164.171C370.769 163.952 370.225 163.612 369.766 163.174L370.517 162.079C370.884 162.447 371.324 162.733 371.809 162.919C372.294 163.106 372.812 163.188 373.331 163.161C375.036 163.161 376.029 162.41 376.029 161.15C376.029 160.17 375.329 159.584 373.483 159.584H371.09L372.63 154.403H378.206L377.977 155.676H373.623Z" fill="#263238"/>
<path d="M379.071 157.599C379.029 157.207 379.067 156.811 379.182 156.434C379.296 156.057 379.486 155.707 379.739 155.405C379.992 155.103 380.304 154.855 380.655 154.677C381.006 154.498 381.39 154.392 381.783 154.365C382.061 154.354 382.338 154.403 382.595 154.51C382.853 154.616 383.084 154.778 383.273 154.982C383.461 155.187 383.603 155.43 383.689 155.695C383.775 155.96 383.802 156.24 383.768 156.517C383.812 156.908 383.776 157.303 383.663 157.68C383.55 158.057 383.362 158.407 383.109 158.709C382.857 159.011 382.547 159.259 382.196 159.438C381.846 159.617 381.462 159.723 381.07 159.75C380.791 159.761 380.513 159.711 380.256 159.605C379.998 159.498 379.766 159.338 379.576 159.133C379.387 158.929 379.243 158.686 379.156 158.421C379.069 158.156 379.04 157.876 379.071 157.599ZM387.854 154.442H388.987L380.344 164.345H379.186L387.854 154.442ZM382.89 156.593C382.89 155.651 382.457 155.167 381.744 155.167C380.599 155.167 380.039 156.44 380.039 157.522C380.039 158.604 380.472 158.948 381.184 158.948C382.317 158.999 382.89 157.726 382.89 156.593ZM384.456 162.27C384.412 161.879 384.448 161.482 384.562 161.106C384.676 160.729 384.866 160.379 385.12 160.078C385.373 159.776 385.686 159.53 386.038 159.353C386.39 159.176 386.774 159.073 387.167 159.05C387.445 159.038 387.722 159.087 387.978 159.194C388.235 159.301 388.466 159.462 388.653 159.667C388.841 159.872 388.982 160.115 389.066 160.38C389.15 160.645 389.175 160.925 389.14 161.201C389.184 161.591 389.148 161.986 389.035 162.363C388.921 162.739 388.733 163.088 388.48 163.389C388.228 163.69 387.917 163.937 387.567 164.114C387.216 164.292 386.834 164.396 386.441 164.421C386.162 164.437 385.882 164.39 385.622 164.285C385.362 164.18 385.128 164.02 384.938 163.814C384.747 163.609 384.604 163.364 384.518 163.097C384.433 162.83 384.407 162.548 384.443 162.27H384.456ZM388.274 161.264C388.274 160.335 387.829 159.839 387.129 159.839C385.996 159.839 385.41 161.112 385.41 162.206C385.41 163.301 385.869 163.632 386.556 163.632C387.638 163.632 388.211 162.346 388.211 161.264H388.274Z" fill="#263238"/>
<g opacity="0.3">
<path d="M239.548 150.063L233.476 168.787H239.548L245.251 150.063H239.548Z" fill="white"/>
</g>
<g opacity="0.3">
<path d="M254.543 150.063L248.471 168.787H254.543L260.246 150.063H254.543Z" fill="white"/>
</g>
<g opacity="0.3">
<path d="M269.525 150.063L263.466 168.787H269.525L275.24 150.063H269.525Z" fill="white"/>
</g>
<g opacity="0.3">
<path d="M284.52 150.063L278.461 168.787H284.52L290.235 150.063H284.52Z" fill="white"/>
</g>
<g opacity="0.3">
<path d="M299.515 150.063L293.443 168.787H299.515L305.23 150.063H299.515Z" fill="white"/>
</g>
<path d="M72.301 415.082C72.301 415.082 104.544 429.606 138.123 429.606C169.207 429.606 202.112 413.962 202.112 413.962L72.301 415.082Z" fill="#E0E0E0"/>
<path d="M141.623 415.362H128.309V554.834H141.623V415.362Z" fill="#E0E0E0"/>
<path d="M194.042 546.649H75.8652V554.821H194.042V546.649Z" fill="#E0E0E0"/>
<path d="M90.3254 557.507C90.3304 559.294 89.8051 561.042 88.8159 562.529C87.8268 564.017 86.4183 565.178 84.7689 565.865C83.1195 566.551 81.3035 566.733 79.5508 566.386C77.7981 566.04 76.1877 565.181 74.9235 563.919C73.6593 562.656 72.7982 561.047 72.4493 559.295C72.1005 557.543 72.2795 555.726 72.9638 554.076C73.6481 552.426 74.8068 551.016 76.2931 550.024C77.7795 549.033 79.5266 548.505 81.3132 548.508C83.7002 548.511 85.9886 549.46 87.6776 551.147C89.3666 552.833 90.3187 555.12 90.3254 557.507Z" fill="#263238"/>
<path d="M142.845 557.507C142.845 559.292 142.316 561.037 141.324 562.521C140.333 564.005 138.923 565.162 137.274 565.845C135.625 566.528 133.811 566.707 132.06 566.359C130.309 566.01 128.701 565.151 127.439 563.889C126.177 562.627 125.317 561.019 124.969 559.268C124.621 557.517 124.8 555.703 125.483 554.054C126.166 552.404 127.322 550.995 128.807 550.003C130.291 549.012 132.036 548.482 133.821 548.482C136.214 548.482 138.51 549.433 140.202 551.126C141.895 552.818 142.845 555.114 142.845 557.507Z" fill="#263238"/>
<path d="M203.678 557.507C203.678 559.292 203.148 561.037 202.157 562.521C201.165 564.005 199.755 565.162 198.106 565.845C196.457 566.528 194.643 566.707 192.892 566.359C191.141 566.01 189.533 565.151 188.271 563.889C187.009 562.627 186.149 561.019 185.801 559.268C185.453 557.517 185.632 555.703 186.315 554.054C186.998 552.404 188.155 550.995 189.639 550.003C191.123 549.012 192.868 548.482 194.653 548.482C197.046 548.482 199.342 549.433 201.034 551.126C202.727 552.818 203.678 555.114 203.678 557.507Z" fill="#263238"/>
<path d="M138.11 465.552H119.997V473.05H138.11V465.552Z" fill="#E0E0E0"/>
<path d="M123.294 460.308H116.7V478.294H123.294V460.308Z" fill="#E0E0E0"/>
<path d="M69.1442 202.799H123.217V397.337H54.3785V217.552C54.3853 213.639 55.9435 209.889 58.7115 207.123C61.4795 204.358 65.2314 202.803 69.1442 202.799Z" fill="#455A64"/>
<path d="M69.6025 394.384C69.4243 394.384 69.2715 352.175 69.2715 300.113C69.2715 248.051 69.4243 205.829 69.6025 205.829C69.7807 205.829 69.9334 248.038 69.9334 300.113C69.9334 352.188 69.7552 394.384 69.6025 394.384Z" fill="#263238"/>
<path d="M54.3785 396.943H224.706V418.099H64.4981C61.7974 418.099 59.2072 417.026 57.2975 415.116C55.3878 413.206 54.3149 410.616 54.3149 407.915V396.892L54.3785 396.943Z" fill="#455A64"/>
<path d="M150.788 125.903L143.406 196.282C142.133 208.26 142.756 226.094 161.774 227.214C178.321 226.946 184.126 211.812 185.284 200.648C185.844 195.34 186.302 190.923 186.404 190.389C186.404 190.389 204.492 190.579 207.649 172.975C209.177 164.472 210.882 146.702 212.244 130.613C212.949 122.275 210.487 113.977 205.35 107.373C200.212 100.768 192.775 96.3402 184.52 94.9715L182.815 94.6788C164.294 92.6676 152.252 107.293 150.788 125.903Z" fill="#FFBE9D"/>
<path d="M186.404 190.35C178.261 188.974 170.685 185.29 164.574 179.734C164.574 179.734 168.024 193.545 185.882 194.895L186.404 190.35Z" fill="#EB996E"/>
<path d="M181.249 135.043C180.867 135.361 178.971 133.528 176.005 133.171C173.039 132.815 170.684 134.075 170.404 133.668C170.264 133.477 170.697 132.853 171.677 132.268C173.059 131.51 174.646 131.212 176.208 131.415C177.755 131.609 179.2 132.291 180.333 133.362C181.211 134.19 181.44 134.89 181.249 135.043Z" fill="#263238"/>
<path d="M180.956 141.853C180.859 142.475 180.522 143.035 180.018 143.413C179.514 143.791 178.883 143.957 178.258 143.876C177.952 143.849 177.654 143.762 177.383 143.619C177.111 143.476 176.87 143.28 176.675 143.043C176.479 142.806 176.333 142.533 176.244 142.239C176.155 141.945 176.126 141.636 176.157 141.331C176.258 140.71 176.595 140.152 177.099 139.775C177.602 139.397 178.232 139.229 178.856 139.307C179.162 139.334 179.459 139.421 179.731 139.564C180.003 139.708 180.243 139.903 180.439 140.14C180.634 140.377 180.781 140.65 180.87 140.944C180.958 141.238 180.988 141.547 180.956 141.853Z" fill="#263238"/>
<path d="M186.786 156.453C188.288 156.246 189.81 156.225 191.318 156.389C192.018 156.389 192.705 156.389 192.896 155.956C193.07 155.247 193.026 154.502 192.769 153.818L191.61 148.217C190.007 140.236 188.976 133.731 189.307 133.668C189.637 133.604 191.178 140.032 192.769 147.988C193.151 149.961 193.507 151.807 193.851 153.627C194.146 154.535 194.11 155.518 193.749 156.402C193.613 156.626 193.427 156.815 193.207 156.957C192.986 157.098 192.736 157.187 192.476 157.216C192.075 157.269 191.668 157.269 191.267 157.216C189.748 157.146 188.243 156.89 186.786 156.453Z" fill="#263238"/>
<path d="M181.02 123.752C180.663 124.388 178.334 123.663 175.47 123.548C172.606 123.434 170.213 123.841 169.933 123.179C169.818 122.861 170.315 122.301 171.346 121.804C172.683 121.189 174.154 120.918 175.623 121.015C177.094 121.092 178.523 121.53 179.785 122.288C180.74 122.835 181.173 123.446 181.02 123.752Z" fill="#263238"/>
<path d="M208.731 131.86C208.375 132.37 206.109 131.555 203.308 131.211C200.508 130.867 198.141 131.008 197.886 130.422C197.784 130.142 198.293 129.709 199.312 129.365C200.683 128.965 202.123 128.86 203.538 129.06C204.965 129.243 206.339 129.72 207.573 130.46C208.502 131.058 208.897 131.618 208.731 131.86Z" fill="#263238"/>
<path d="M150.05 139.167C149.77 138.976 138.53 133.566 136.914 145.684C135.297 157.802 147.797 156.924 147.861 156.58C147.924 156.236 150.05 139.167 150.05 139.167Z" fill="#FFBE9D"/>
<path d="M144.78 151.501C144.78 151.501 144.538 151.616 144.169 151.73C143.636 151.878 143.066 151.814 142.578 151.552C141.305 150.916 140.554 148.739 140.796 146.55C140.901 145.503 141.24 144.494 141.789 143.597C141.952 143.233 142.203 142.915 142.518 142.671C142.833 142.426 143.203 142.264 143.596 142.196C143.846 142.164 144.098 142.22 144.31 142.355C144.522 142.49 144.679 142.695 144.755 142.935C144.882 143.291 144.755 143.533 144.831 143.558C144.908 143.584 145.124 143.393 145.086 142.871C145.065 142.564 144.934 142.274 144.717 142.056C144.415 141.758 144.008 141.589 143.584 141.585C143.073 141.62 142.579 141.785 142.15 142.063C141.72 142.341 141.368 142.725 141.127 143.176C140.469 144.153 140.063 145.277 139.943 146.448C139.701 148.905 140.643 151.361 142.324 152.1C142.636 152.238 142.976 152.303 143.317 152.292C143.659 152.281 143.994 152.194 144.297 152.036C144.717 151.794 144.857 151.527 144.78 151.501Z" fill="#EB996E"/>
<path d="M183.133 164.561C183.298 164.268 180.982 163.288 179.505 160.933C178.902 159.89 178.435 158.774 178.118 157.611C177.85 156.695 177.634 156.109 177.494 156.135C177.354 156.16 177.341 156.771 177.494 157.751C177.645 159.063 178.08 160.327 178.767 161.455C179.466 162.592 180.466 163.513 181.656 164.116C182.471 164.574 183.044 164.663 183.133 164.561Z" fill="#263238"/>
<path d="M135.692 117.973C138.632 113.912 139.689 108.846 141.522 104.187C143.355 99.5285 146.473 94.8188 151.323 93.5713L151.425 93.635C155.791 92.3621 160.984 92.7821 164.154 96.028C165.592 89.7781 171.6 85.2847 177.927 84.2409C184.253 83.1971 194.054 85.0683 199.757 88.0596C204.161 90.3254 208.235 94.5005 213.097 100.547C215.159 103.089 217.006 105.796 218.622 108.643L222.44 125.712L217.043 133.973C216.715 134.551 216.359 135.112 215.974 135.654L210.144 153.589C210.335 148.574 212.308 131.237 212.499 126.209C208.754 125.75 205.14 124.54 201.874 122.65C198.608 120.76 195.758 118.23 193.494 115.211C191.05 111.939 189.256 107.955 185.768 105.817C181.287 103.054 175.585 104.226 170.404 105.498L170.633 105.32C167.935 106.28 165.446 107.75 163.301 109.648C163.5 119.608 161.55 129.493 157.586 138.632C156.987 140.007 155.46 142.807 154.009 143.227C151.183 144.029 150.699 141.178 149.197 139.549C148.09 138.352 146.308 138.034 144.335 137.868C143.36 133.604 142.638 129.285 142.171 124.936C140.486 125.283 138.743 125.235 137.079 124.796L139.001 121.181C138.305 121.6 137.529 121.869 136.723 121.97C136.302 122.023 135.876 121.938 135.506 121.73C135.137 121.521 134.845 121.199 134.673 120.812C134.355 119.831 135.081 118.826 135.692 117.973Z" fill="#263238"/>
<path d="M169.576 98.5737C168.898 99.0157 168.251 99.5048 167.642 100.038C166.085 101.603 164.962 103.546 164.383 105.677C163.941 107.132 163.646 108.629 163.505 110.144C163.352 111.786 163.327 113.543 163.276 115.402C163.261 117.351 163.125 119.299 162.868 121.231C162.716 122.256 162.491 123.269 162.194 124.261C161.936 125.33 161.41 126.315 160.666 127.125C160.329 127.436 159.918 127.655 159.473 127.762C159.027 127.869 158.562 127.86 158.12 127.736C157.263 127.496 156.51 126.976 155.982 126.259C155.147 124.844 154.707 123.231 154.709 121.588L155.065 121.664C154.392 122.957 153.534 124.144 152.52 125.19C151.556 126.156 150.256 126.712 148.892 126.743C148.261 126.748 147.64 126.581 147.097 126.259C146.595 125.936 146.201 125.471 145.964 124.923C145.745 124.414 145.666 123.856 145.735 123.306C145.816 122.814 146.063 122.365 146.435 122.033L146.601 122.224C145.135 123.649 143.301 124.637 141.305 125.076C141.165 125.119 141.019 125.141 140.872 125.139C141.004 125.085 141.141 125.043 141.28 125.012C141.56 124.923 141.967 124.808 142.476 124.605C143.948 124.028 145.29 123.162 146.422 122.059L146.601 122.25C146.275 122.595 146.065 123.032 145.999 123.502C145.933 123.972 146.014 124.45 146.231 124.872C146.448 125.361 146.808 125.774 147.262 126.056C147.755 126.348 148.319 126.498 148.892 126.489C150.164 126.438 151.37 125.906 152.265 124.999C153.232 123.971 154.046 122.809 154.683 121.55L154.989 121.002V121.626C155.017 123.201 155.456 124.741 156.262 126.094C156.746 126.711 157.415 127.157 158.171 127.367C158.552 127.478 158.955 127.488 159.341 127.397C159.727 127.305 160.083 127.115 160.373 126.845C161.059 126.085 161.545 125.166 161.786 124.172C162.084 123.197 162.309 122.201 162.461 121.193C162.717 119.277 162.857 117.347 162.881 115.414C162.881 113.556 162.983 111.799 163.148 110.144C163.309 108.606 163.624 107.088 164.09 105.613C164.71 103.452 165.897 101.496 167.527 99.9485C168.128 99.3779 168.821 98.9131 169.576 98.5737Z" fill="#455A64"/>
<path d="M222.873 120.913L222.72 121.015L222.249 121.295C221.997 121.454 221.733 121.594 221.46 121.715C221.129 121.855 220.76 122.046 220.327 122.186C217.845 123.039 215.191 123.266 212.601 122.848C208.747 122.234 205.153 120.519 202.252 117.909C198.764 114.689 195.97 110.791 194.042 106.453C192.947 104.187 192.094 101.883 191.127 99.7449C190.256 97.6633 189.086 95.7206 187.652 93.9786C186.374 92.3956 184.713 91.1645 182.827 90.4018C181.975 90.0773 181.078 89.8883 180.167 89.8417C179.311 89.8082 178.455 89.8896 177.621 90.0835C175.102 90.6899 172.906 92.2269 171.473 94.386C170.993 95.1885 170.604 96.0425 170.315 96.9318C170.306 96.8727 170.306 96.8127 170.315 96.7536C170.315 96.6008 170.391 96.4353 170.442 96.2189C170.645 95.5351 170.936 94.8805 171.308 94.2714C171.9 93.3022 172.653 92.4412 173.535 91.7256C174.704 90.7828 176.063 90.1053 177.519 89.7398C179.296 89.2818 181.169 89.375 182.891 90.0072C184.835 90.7858 186.551 92.0423 187.881 93.6604C189.341 95.4262 190.537 97.3942 191.432 99.503C192.412 101.667 193.265 103.958 194.347 106.211C196.263 110.494 199.015 114.35 202.443 117.553C205.295 120.139 208.829 121.853 212.626 122.492C215.178 122.933 217.798 122.75 220.264 121.957C221.995 121.435 222.848 120.811 222.873 120.913Z" fill="#455A64"/>
<path d="M208.235 138.632C207.853 138.963 205.956 137.117 202.99 136.774C200.024 136.43 197.67 137.665 197.402 137.257C197.262 137.066 197.682 136.455 198.675 135.857C200.059 135.106 201.645 134.812 203.207 135.017C204.754 135.199 206.202 135.878 207.331 136.952C208.196 137.805 208.426 138.518 208.235 138.632Z" fill="#263238"/>
<path d="M205.714 144.157C205.62 144.78 205.284 145.342 204.779 145.721C204.274 146.099 203.641 146.264 203.016 146.18C202.71 146.153 202.413 146.066 202.142 145.923C201.871 145.779 201.631 145.583 201.437 145.346C201.242 145.109 201.097 144.836 201.01 144.542C200.923 144.248 200.895 143.939 200.928 143.635C201.026 143.015 201.361 142.457 201.862 142.079C202.363 141.702 202.991 141.534 203.614 141.611C203.92 141.638 204.217 141.725 204.489 141.868C204.761 142.012 205.001 142.207 205.197 142.444C205.392 142.681 205.539 142.954 205.628 143.248C205.716 143.542 205.746 143.851 205.714 144.157Z" fill="#263238"/>
<path d="M217.412 106.389C218.685 108.541 220.836 110.603 223.344 110.603C224.263 110.507 225.174 110.341 226.068 110.106C226.883 110.717 226.374 113.67 225.686 114.421C225.05 115.057 224.36 115.636 223.624 116.153C226.374 118.024 229.11 117.527 232.331 116.725C231.743 119.341 230.481 121.757 228.67 123.734C226.859 125.71 224.562 127.178 222.007 127.991C221.214 128.315 220.354 128.446 219.5 128.373C218.646 128.3 217.821 128.025 217.094 127.571C216.036 126.481 215.415 125.04 215.35 123.523C214.51 118.047 214.352 112.489 214.879 106.975L217.412 106.389Z" fill="#263238"/>
<path d="M184.533 206.86C184.533 206.86 195.735 211.404 202.112 226.908C206.593 237.804 231.516 272.198 231.516 272.198L297.784 286.913L300.049 308.056L194.054 307.178L179.327 260.271L184.533 206.86Z" fill="#D1376A"/>
<path d="M139.905 187.321L128.143 192.26C117.26 196.817 103.334 207.318 98.6629 218.163C87.4486 244.283 77.2908 277.85 73.3957 307.547C69.4625 337.498 77.2908 381.821 77.2908 381.821L176.756 324.986L170.939 320.925L189.79 218.38L186.277 205.969L188.619 195.467C188.619 195.467 162.232 184.877 143.011 177.278L139.905 187.321Z" fill="#D1376A"/>
<g opacity="0.3">
<path d="M130.409 352.188C130.774 347.096 131.139 341.975 131.504 336.824C130.337 337.935 128.81 338.59 127.201 338.669C129.69 336.294 131.898 333.642 133.782 330.765L129.251 332.712C130.849 331.483 132.154 329.913 133.07 328.117C130.638 326.22 127.214 326.539 124.159 326.844C108.439 328.435 92.5784 327.379 76.7944 326.322C75.2135 326.232 73.6713 325.797 72.2756 325.049C72.2756 325.049 71.9573 320.721 72.6574 319.105C73.3575 317.488 74.4522 317.959 76.107 317.361C77.787 316.85 79.5319 316.584 81.2877 316.572C100.496 315.553 119.742 317.132 138.912 318.723C140.108 318.705 141.281 319.041 142.285 319.69C143.851 320.963 143.711 323.356 143.444 325.355C142.459 332.534 141.483 339.709 140.516 346.88" fill="black"/>
</g>
<path d="M188.619 214.255C188.618 214.58 188.588 214.904 188.53 215.223L188.123 217.96C187.766 220.327 187.193 223.764 186.442 227.99C184.94 236.455 182.687 248.102 180.078 260.933C177.468 273.764 174.821 285.36 172.924 293.736C171.97 297.873 171.193 301.246 170.633 303.652C170.366 304.772 170.149 305.663 169.984 306.338C169.925 306.657 169.831 306.968 169.704 307.267C169.737 306.946 169.788 306.627 169.857 306.312C169.984 305.625 170.162 304.721 170.391 303.601C170.888 301.17 171.664 297.796 172.466 293.634L179.365 260.831C182.038 248 184.368 236.366 185.984 227.926C186.761 223.764 187.41 220.365 187.868 217.934C188.085 216.814 188.263 215.91 188.39 215.223C188.434 214.894 188.51 214.569 188.619 214.255Z" fill="#263238"/>
<path d="M98.6629 359.838C98.841 359.618 99.0415 359.418 99.2612 359.24L101.043 357.598C101.807 356.885 102.774 356.032 103.933 355.052C105.091 354.072 106.364 352.977 107.866 351.844C110.806 349.489 114.434 346.854 118.571 344.092C122.708 341.33 127.482 338.529 132.484 335.831C137.487 333.132 142.565 330.892 147.173 328.995C151.781 327.099 156.007 325.635 159.61 324.54C161.392 323.942 163.046 323.509 164.485 323.102C165.923 322.694 167.171 322.376 168.189 322.134L170.557 321.6C170.825 321.515 171.103 321.463 171.384 321.447C171.127 321.567 170.858 321.661 170.582 321.727L168.253 322.389C167.247 322.669 166.012 323.013 164.587 323.458C163.161 323.904 161.532 324.362 159.75 324.986C156.186 326.144 151.985 327.684 147.402 329.568C142.82 331.452 137.868 333.756 132.802 336.416C127.736 339.077 123.065 341.903 118.902 344.601C114.74 347.3 111.112 349.922 108.146 352.239C106.631 353.346 105.333 354.441 104.162 355.357C102.991 356.274 102.011 357.114 101.209 357.789L99.3503 359.329C99.14 359.523 98.9096 359.693 98.6629 359.838Z" fill="#263238"/>
<path d="M149.719 322.3C149.808 322.465 140.134 327.9 128.08 334.443C116.025 340.986 106.249 346.167 106.16 346.001C106.071 345.836 115.745 340.413 127.8 333.858C139.854 327.302 149.63 322.147 149.719 322.3Z" fill="#263238"/>
<g opacity="0.3">
<path d="M114.765 243.736C120.939 270.467 139.816 294.321 164.943 305.205C146.867 285.855 130.103 265.32 114.765 243.736Z" fill="black"/>
</g>
<g opacity="0.3">
<path d="M187.041 223.42C189.472 234.724 187.664 248.879 181.949 258.896L180.536 255.969C182.535 247.478 185.399 232.42 186.99 223.42" fill="black"/>
</g>
<path d="M239.917 493.149L227.99 529.02C227.99 529.02 260.462 553.205 258.896 560.04L188.505 539.419L204.785 482.75L239.917 493.149Z" fill="#455A64"/>
<g opacity="0.3">
<path d="M239.917 493.149L227.99 529.02C227.99 529.02 260.462 553.205 258.896 560.04L188.505 539.419L204.785 482.75L239.917 493.149Z" fill="black"/>
</g>
<path d="M207.114 519.6C206.377 519.606 205.669 519.886 205.125 520.384C204.582 520.883 204.243 521.565 204.174 522.299C204.152 523.035 204.415 523.752 204.909 524.3C205.402 524.847 206.087 525.184 206.822 525.239C207.604 525.23 208.355 524.93 208.928 524.398C209.502 523.867 209.858 523.141 209.928 522.362C209.869 521.592 209.514 520.876 208.937 520.363C208.359 519.85 207.606 519.581 206.834 519.613" fill="#E0E0E0"/>
<g opacity="0.6">
<path d="M188.505 539.419L190.363 533.768L257.165 555.649C257.165 555.649 259.902 557.927 258.896 560.04L188.505 539.419Z" fill="white"/>
</g>
<path d="M229.238 528.994C229.123 529.338 227.366 528.994 225.342 529.605C223.319 530.216 222.007 531.387 221.727 531.158C221.447 530.929 222.542 529.096 224.999 528.409C227.456 527.721 229.403 528.701 229.238 528.994Z" fill="#263238"/>
<path d="M235.729 534.213C235.729 534.569 234.049 534.722 232.458 535.83C230.867 536.937 230.078 538.375 229.734 538.261C229.39 538.146 229.734 536.148 231.758 534.799C233.782 533.449 235.818 533.882 235.729 534.213Z" fill="#263238"/>
<path d="M237.333 544.282C237.002 544.282 237.028 542.411 238.453 540.781C239.879 539.152 241.725 538.872 241.776 539.203C241.827 539.534 240.503 540.247 239.395 541.596C238.288 542.945 237.69 544.345 237.333 544.282Z" fill="#263238"/>
<path d="M231.045 520.504C230.816 520.784 229.378 519.842 227.392 519.409C225.406 518.976 223.713 519.142 223.573 518.785C223.433 518.429 225.292 517.64 227.621 518.187C229.95 518.735 231.3 520.3 231.045 520.504Z" fill="#263238"/>
<path d="M260.449 509.162L258.96 546.942C258.96 546.942 296.867 561.135 297.262 568.149L223.917 567.894L223.777 508.933L260.449 509.162Z" fill="#455A64"/>
<path d="M236.289 543.683C235.582 543.894 234.977 544.359 234.592 544.989C234.206 545.619 234.068 546.369 234.202 547.095C234.389 547.809 234.843 548.424 235.471 548.813C236.099 549.202 236.852 549.334 237.575 549.182C238.322 548.957 238.958 548.462 239.36 547.794C239.762 547.126 239.902 546.333 239.752 545.567C239.484 544.843 238.945 544.251 238.25 543.916C237.554 543.581 236.755 543.53 236.022 543.773" fill="#E0E0E0"/>
<g opacity="0.6">
<path d="M223.917 567.894L224.133 561.95L294.385 564.406C294.385 564.406 297.644 565.845 297.262 568.149L223.917 567.894Z" fill="white"/>
</g>
<path d="M260.156 546.573C260.156 546.929 258.349 547.082 256.58 548.228C254.81 549.373 253.868 550.875 253.537 550.774C253.206 550.672 253.754 548.559 255.918 547.209C258.082 545.86 260.233 546.242 260.156 546.573Z" fill="#263238"/>
<path d="M267.832 549.781C267.908 550.124 266.355 550.723 265.133 552.237C263.912 553.752 263.555 555.356 263.199 555.331C262.842 555.305 262.626 553.294 264.179 551.435C265.732 549.577 267.832 549.437 267.832 549.781Z" fill="#263238"/>
<path d="M272.147 558.997C271.816 559.073 271.333 557.278 272.249 555.331C273.166 553.383 274.859 552.594 275.011 552.887C275.164 553.179 274.12 554.236 273.382 555.852C272.644 557.469 272.529 558.971 272.147 558.997Z" fill="#263238"/>
<path d="M259.533 537.917C259.38 538.248 257.738 537.752 255.714 537.917C253.69 538.083 252.112 538.681 251.895 538.375C251.679 538.07 253.168 536.797 255.625 536.67C258.082 536.543 259.711 537.637 259.533 537.917Z" fill="#263238"/>
<path d="M172.581 324.158C172.581 324.158 260.5 347.071 271.422 362.231C280.637 375.1 232.242 506.502 232.242 506.502L194.054 503.205L210.526 393.252L112.016 361.938L126.896 324.107L172.581 324.158Z" fill="#263238"/>
<path d="M178.881 344.754C178.881 344.754 268.761 366.584 277.85 382.101C282.089 389.344 279.301 413.122 277.723 424.349C276.653 431.91 260.767 537.714 260.767 537.714H221.906L222.759 418.213L129.378 399.387C129.378 399.387 79.2511 403.206 77.2908 381.821L98.2174 353.46L147.606 329.059L178.881 344.754Z" fill="#263238"/>
<path d="M172.033 342.004C172.033 342.004 172.479 342.106 173.306 342.348L177.125 343.404L191.789 347.503C198.153 349.285 205.943 351.462 214.943 354.135C223.942 356.808 234.138 360.041 245.2 364.229C250.741 366.3 256.461 368.659 262.359 371.307L266.814 373.318C268.315 374.051 269.777 374.862 271.193 375.749C272.641 376.656 274.008 377.687 275.279 378.829C276.599 379.99 277.706 381.373 278.55 382.915C281.579 396.688 279.746 411.747 277.493 427.136C276.513 434.888 275.253 442.793 274.069 450.876C272.886 458.959 271.625 467.233 270.365 475.634C267.819 492.449 265.274 509.862 262.575 527.683C262.066 531.056 261.569 534.417 261.06 537.752V538.044H221.6V537.714C221.944 492.424 222.262 451.411 222.517 418.226L222.72 418.468L156.313 404.962L138.199 401.245L133.49 400.265C132.42 400.036 131.886 399.896 131.886 399.896L133.502 400.189L138.238 401.105L156.427 404.669L222.809 417.933H223.013V418.149C222.797 451.334 222.529 492.347 222.237 537.65L221.906 537.319H260.755L260.436 537.599C260.933 534.251 261.442 530.903 261.939 527.53L269.741 475.481C271.014 467.063 272.253 458.81 273.458 450.723C274.655 442.64 275.928 434.735 276.921 426.983C277.447 423.114 277.96 419.295 278.461 415.527C278.997 411.819 279.328 408.083 279.454 404.338C279.581 400.647 279.581 397.011 279.454 393.43C279.377 391.635 279.276 389.866 279.123 388.109C279.108 386.386 278.758 384.683 278.092 383.094C277.282 381.608 276.218 380.277 274.948 379.16C273.706 378.04 272.369 377.03 270.951 376.144C269.555 375.257 268.11 374.449 266.623 373.725L262.193 371.701C256.312 369.066 250.597 366.686 245.073 364.611C234.036 360.398 223.84 357.177 214.866 354.428C205.892 351.678 198.102 349.514 191.75 347.694L177.112 343.57L173.293 342.45C172.466 342.157 172.033 342.004 172.033 342.004Z" fill="#455A64"/>
<path d="M296.511 287.957C297.083 287.091 304.504 278.524 306.503 278.524C308.501 278.524 310.793 280.816 310.793 280.816C312.129 280.202 313.619 280.003 315.07 280.243C316.788 280.816 324.782 287.664 324.782 290.235V294.525C324.963 295.659 324.963 296.815 324.782 297.949C324.502 299.947 319.69 303.372 319.69 303.372H292.234C292.234 303.372 287.002 299.846 287.651 296.523C288.3 293.201 296.511 287.957 296.511 287.957Z" fill="#FFBE9D"/>
<path d="M310.793 280.816C311.388 281.088 311.959 281.411 312.498 281.783L317.03 284.647C317.554 284.951 318.055 285.292 318.532 285.665C319.037 286.133 319.418 286.719 319.639 287.371C319.813 288.062 319.894 288.772 319.881 289.484L319.996 291.674C320.148 294.665 320.301 297.949 320.467 301.386L320.543 302.939V303.219L320.276 303.282L318.596 303.69H318.519C317.733 303.666 316.977 303.384 316.368 302.888C315.807 302.422 315.336 301.857 314.98 301.22C314.335 300.061 313.851 298.819 313.542 297.529C313.008 295.372 312.692 293.168 312.6 290.948L312.753 291.152L307.954 289.268C307.36 289.059 306.785 288.799 306.236 288.491C306.853 288.617 307.457 288.795 308.043 289.026L312.906 290.719H313.046V290.872C313.193 293.056 313.547 295.221 314.102 297.338C314.414 298.567 314.889 299.748 315.515 300.851C315.789 301.433 316.208 301.934 316.732 302.306C317.256 302.678 317.867 302.909 318.506 302.977H318.43L320.11 302.557L319.856 302.901L319.779 301.335C319.639 297.898 319.487 294.627 319.359 291.623C319.359 290.872 319.359 290.146 319.283 289.433C319.296 288.77 319.232 288.108 319.092 287.46C318.916 286.892 318.596 286.379 318.163 285.971C317.711 285.606 317.239 285.266 316.75 284.953L312.333 281.923C311.789 281.598 311.274 281.228 310.793 280.816Z" fill="#EB996E"/>
<path d="M292.234 302.391C292.837 302.262 293.45 302.181 294.067 302.15L299.069 301.755H299.146C301.006 302.192 302.888 302.532 304.785 302.773C305.878 302.922 306.978 303.012 308.081 303.041C308.617 303.129 309.165 303.097 309.687 302.947C310.209 302.797 310.691 302.534 311.098 302.175C311.44 301.689 311.606 301.101 311.569 300.508C311.569 299.884 311.48 299.235 311.455 298.573C311.382 298.033 311.12 297.537 310.716 297.172C310.314 296.769 309.855 296.426 309.354 296.154C307.538 295.239 305.494 294.877 303.473 295.11C302.749 295.178 302.02 295.073 301.345 294.803C300.67 294.533 300.069 294.106 299.591 293.557C298.993 292.705 299.044 292.081 299.082 292.094C299.25 292.553 299.49 292.983 299.795 293.366C300.272 293.843 300.85 294.205 301.488 294.426C302.125 294.646 302.804 294.719 303.473 294.639C305.582 294.326 307.735 294.664 309.647 295.607C310.202 295.902 310.712 296.275 311.162 296.714C311.691 297.193 312.026 297.85 312.104 298.56C312.104 299.145 312.231 299.833 312.231 300.495C312.266 301.241 312.046 301.977 311.607 302.582C311.164 303.096 310.557 303.442 309.889 303.562C309.289 303.675 308.678 303.714 308.069 303.677C306.898 303.677 305.777 303.524 304.708 303.384C302.791 303.108 300.891 302.722 299.018 302.226H299.095L294.092 302.404C293.474 302.466 292.851 302.461 292.234 302.391Z" fill="#EB996E"/>
<path d="M320.174 302.277C320.81 300.574 321.55 298.912 322.389 297.3C323.034 295.589 323.89 293.964 324.935 292.463C324.496 294.23 323.851 295.939 323.013 297.554C322.364 299.289 321.402 300.89 320.174 302.277Z" fill="#EB996E"/>
<path d="M260.691 308.069L359.583 309.341L391.406 220.06C391.746 219.166 391.731 218.176 391.364 217.293C390.997 216.411 390.306 215.702 389.433 215.312C388.963 215.094 388.452 214.976 387.934 214.965C387.416 214.954 386.901 215.051 386.423 215.25C385.944 215.449 385.512 215.744 385.154 216.119C384.795 216.493 384.519 216.938 384.341 217.425L352.964 301.971L260.602 302.888C259.927 302.888 259.279 303.156 258.802 303.634C258.324 304.111 258.056 304.758 258.056 305.434C258.044 305.783 258.103 306.131 258.231 306.457C258.359 306.782 258.553 307.077 258.8 307.325C259.047 307.572 259.343 307.765 259.668 307.893C259.993 308.021 260.342 308.081 260.691 308.069Z" fill="#263238"/>
<path d="M113.327 241.737C113.327 241.737 161.697 307.496 169.195 307.496H239.777V280.765L186.404 268.176C186.404 268.176 160.132 213.823 154.302 206.86C148.472 199.897 132.93 190.516 121.308 201.004C109.686 211.493 113.327 241.737 113.327 241.737Z" fill="#D1376A"/>
<path d="M239.726 283.4L251.297 282.47C251.297 282.47 251.539 278.181 254.072 276.666C256.605 275.151 256.338 271.867 257.891 272.122C258.731 272.287 259.596 272.287 260.436 272.122L270.021 264.051L278.104 258.756L284.469 257.483C284.469 257.483 288.288 258.489 284.469 262.015L280.421 264.293L276.895 267.832L284.965 263.861C285.337 263.681 285.743 263.588 286.156 263.588C286.568 263.588 286.975 263.681 287.346 263.861C289.529 264.804 291.611 265.968 293.558 267.336C293.732 267.499 293.871 267.696 293.965 267.915C294.06 268.134 294.109 268.37 294.109 268.608C294.109 268.847 294.06 269.083 293.965 269.302C293.871 269.521 293.732 269.718 293.558 269.881L297.083 272.911C297.083 272.911 297.847 276.959 293.799 275.94L290.528 275.189L286.149 279.441C286.149 279.441 300.8 276.411 301.806 276.895C302.812 277.379 304.084 279.67 301.806 281.681C299.527 283.692 290.693 283.196 288.682 285.22C286.671 287.244 273.306 299.438 270.021 300.189C266.737 300.94 239.803 307.521 239.803 307.521L239.726 283.4Z" fill="#FFBE9D"/>
<path d="M296.982 272.873C296.29 272.45 295.626 271.983 294.996 271.473C294.398 271.027 293.723 270.505 292.857 269.945C292.45 269.665 292.026 269.385 291.585 269.105C291.188 268.811 290.724 268.623 290.235 268.558C289.232 268.774 288.278 269.176 287.422 269.741C286.557 270.212 285.793 270.658 285.144 271.014C284.477 271.483 283.759 271.876 283.005 272.185C283.539 271.569 284.172 271.044 284.876 270.632C285.5 270.2 286.251 269.703 287.117 269.194C287.549 268.94 288.008 268.685 288.491 268.43C289.017 268.126 289.604 267.944 290.21 267.896C290.386 267.86 290.568 267.86 290.744 267.896C290.893 267.945 291.037 268.005 291.177 268.074C291.436 268.199 291.687 268.339 291.928 268.494C292.399 268.787 292.832 269.08 293.201 269.385C294.003 269.971 294.703 270.543 295.276 271.04C296.434 272.084 297.058 272.809 296.982 272.873Z" fill="#EB996E"/>
<path d="M261.531 271.142C261.633 271.294 260.436 272.338 258.985 273.687C257.534 275.037 256.44 276.157 256.3 276.017C256.836 274.933 257.595 273.974 258.527 273.204C259.344 272.28 260.376 271.572 261.531 271.142Z" fill="#EB996E"/>
<path d="M154.302 206.86C155.339 208.138 156.276 209.496 157.102 210.921C158.77 213.683 161.124 217.807 163.95 223.14C169.64 233.807 177.469 249.273 186.646 268.099L186.468 267.947L239.854 280.498H240.108V307.929H236.582H176.59H169.767C169.471 307.947 169.173 307.947 168.876 307.929C168.576 307.87 168.285 307.771 168.011 307.636C167.478 307.355 166.971 307.027 166.496 306.656C165.609 305.995 164.759 305.285 163.95 304.53C160.859 301.619 157.922 298.547 155.154 295.327C149.732 289.166 144.971 283.222 140.58 277.774C131.898 266.852 125.114 257.827 120.455 251.59L115.122 244.36C114.536 243.532 114.091 242.909 113.76 242.463C113.429 242.018 113.314 241.801 113.314 241.801C113.314 241.801 113.492 242.005 113.823 242.425L115.236 244.283L120.671 251.412C125.394 257.611 132.242 266.585 140.962 277.468C145.328 282.891 150.152 288.81 155.575 294.958C158.343 298.149 161.274 301.196 164.358 304.085C165.165 304.825 166.015 305.518 166.903 306.159C167.338 306.473 167.798 306.75 168.278 306.987C168.749 307.214 169.273 307.306 169.793 307.254H176.616H236.608H239.803L239.472 307.585C239.472 298.42 239.472 289.459 239.472 280.854L239.714 281.172L186.341 268.469H186.213L186.15 268.354C177.036 249.502 169.271 233.986 163.67 223.306C160.883 217.947 158.579 213.81 156.949 211.022C156.122 209.648 155.498 208.578 155.002 207.916C154.505 207.255 154.302 206.86 154.302 206.86Z" fill="#263238"/>
<path d="M147.275 202.557C147.275 202.672 145.62 202.01 142.922 201.399C141.336 201.048 139.729 200.805 138.11 200.674C136.132 200.522 134.144 200.522 132.166 200.674C130.193 200.881 128.239 201.243 126.323 201.756C124.756 202.183 123.221 202.719 121.728 203.359C119.182 204.467 117.731 205.409 117.667 205.307C117.955 205.018 118.28 204.769 118.635 204.569C119.562 203.957 120.532 203.413 121.537 202.939C123.027 202.223 124.572 201.627 126.158 201.157C128.101 200.601 130.091 200.222 132.102 200.024C134.118 199.84 136.146 199.84 138.161 200.024C139.806 200.193 141.436 200.486 143.036 200.903C144.109 201.183 145.16 201.54 146.18 201.972C146.906 202.277 147.301 202.507 147.275 202.557Z" fill="#263238"/>
<path d="M176.679 280.383C177.467 278.099 178.691 275.99 180.282 274.171C181.697 272.21 183.483 270.545 185.539 269.271C185.666 269.423 183.222 271.511 180.791 274.579C178.36 277.646 176.87 280.472 176.679 280.383Z" fill="#263238"/>
<path d="M175.063 272.185C177.768 269.79 181.291 268.527 184.902 268.659C184.902 268.863 182.573 269.105 179.811 270.098C177.048 271.091 175.177 272.351 175.063 272.185Z" fill="#263238"/>
<path d="M220.416 409.456C219.398 407.33 216.929 406.401 214.676 405.637C170.213 391.304 122.504 384.43 76.5398 392.78C71.0154 393.786 65.3128 395.097 60.9213 398.61C56.5297 402.124 53.8948 408.488 56.237 413.58L65.6692 416.609C112.735 411.37 160.254 411.703 207.242 417.602C210.411 418.009 213.746 418.404 216.674 417.157C219.602 415.909 221.804 412.307 220.416 409.456Z" fill="#455A64"/>
<path d="M168.825 394.754C168.725 394.773 168.621 394.773 168.52 394.754L167.667 394.639L164.37 394.155C161.519 393.697 157.382 393.035 152.24 392.45C138.867 390.869 125.401 390.227 111.939 390.528C108.006 390.604 104.162 390.795 100.483 391.1C96.8045 391.406 93.2149 391.584 89.7908 391.89C89.3672 391.924 88.9415 391.924 88.5179 391.89C88.1199 391.852 87.7193 391.852 87.3213 391.89C86.5155 391.945 85.7153 392.064 84.9283 392.246L80.3203 393.213C77.3545 393.875 74.6305 394.601 72.1737 395.415C68.293 396.625 64.5871 398.337 61.1504 400.507C59.8775 401.284 59.0374 401.958 58.4391 402.429L57.7517 402.951C57.599 403.066 57.5099 403.129 57.4971 403.117L57.7008 402.9L58.35 402.327C59.1967 401.598 60.0849 400.918 61.0104 400.291C64.4204 398.005 68.1299 396.202 72.0337 394.932C74.7132 394.031 77.4365 393.267 80.1931 392.641L84.8137 391.648C85.6484 391.438 86.5006 391.306 87.3595 391.253C87.783 391.216 88.2089 391.216 88.6324 391.253C89.0553 391.302 89.4824 391.302 89.9053 391.253C93.2785 390.935 96.8936 390.718 100.598 390.426C104.302 390.133 108.235 389.917 112.054 389.84C125.504 389.534 138.958 390.236 152.303 391.94C157.395 392.59 161.57 393.328 164.408 393.863L167.693 394.474L168.533 394.652L168.825 394.754Z" fill="#263238"/>
<path d="M57.3953 322.3L133.184 324.947C133.448 324.957 133.707 325.022 133.944 325.139C134.182 325.255 134.392 325.42 134.561 325.623C134.73 325.826 134.855 326.062 134.927 326.316C134.999 326.571 135.017 326.837 134.979 327.099L124.07 417.984H141.153L149.961 317.934C150.06 317.126 149.991 316.307 149.757 315.528C149.523 314.749 149.129 314.028 148.601 313.409C148.074 312.79 147.423 312.288 146.691 311.934C145.958 311.58 145.16 311.382 144.348 311.353L55.3587 308.171L57.3953 322.3Z" fill="#455A64"/>
<path d="M460.181 315.681H448.305V318.316L474.45 568.225H486.645L460.181 315.681Z" fill="#455A64"/>
<path d="M195.035 315.681H206.911V318.367L182.535 568.149H170.34L195.035 315.681Z" fill="#455A64"/>
<path d="M195.035 315.681C195.035 315.681 195.035 316.126 194.933 316.953C194.831 317.781 194.729 319.105 194.576 320.772C194.258 324.12 193.8 329.059 193.202 335.398C191.929 348.127 190.21 366.495 188.034 389.28C183.604 434.799 177.481 497.872 170.658 568.136L170.34 567.767H182.535L182.204 568.072C193.762 450.736 203.55 351.335 206.809 318.315C206.809 317.043 206.809 316.33 206.809 315.63L206.898 315.719H197.988H195.798H195.073H195.773H197.937L206.949 315.655H207.038V315.757C207.038 316.457 207.038 317.195 207.038 318.443C203.843 351.462 194.233 450.825 182.853 568.238V568.543H169.997V568.174C176.921 497.833 183.146 434.685 187.639 389.115C189.918 366.368 191.738 348.012 193.011 335.321C193.647 328.957 194.144 324.12 194.475 320.772C194.653 319.13 194.78 317.87 194.869 316.953C194.958 316.037 195.035 315.681 195.035 315.681Z" fill="#263238"/>
<path d="M506.349 307.547H166.458V318.303H506.349V307.547Z" fill="#455A64"/>
<path d="M470.16 318.315C470.16 318.494 402.416 318.646 318.876 318.646C235.335 318.646 167.565 318.494 167.565 318.315C167.565 318.137 235.297 317.984 318.876 317.984C402.455 317.984 470.16 318.112 470.16 318.315Z" fill="#263238"/>
</svg>
